<svg width="151" height="152" xmlns="http://www.w3.org/2000/svg" xmlns:xlink="http://www.w3.org/1999/xlink" xml:space="preserve" overflow="hidden"><g transform="translate(-596 -284)"><path d="M123.317 17.3021 123.317 17.3021C122.53 25.324 125.047 33.3458 130.552 39.1656L130.552 39.1656C122.53 39.6375 115.137 43.5698 110.261 50.0187L110.261 50.0187C111.048 41.9969 108.531 33.975 103.026 28.1552L103.026 28.1552C111.048 27.526 118.441 23.5938 123.317 17.3021Z" transform="matrix(1 0 0 1.00662 596 284)"/><path d="M74.7135 21.7062C73.9271 31.9302 77.0729 41.3677 83.3646 47.8167L83.3646 47.8167C74.399 48.1312 65.4333 52.85 58.9844 60.7146L58.9844 60.7146C59.7708 50.6479 56.625 41.0531 50.3333 34.6042L50.3333 34.6042C59.299 34.2896 68.2646 29.5708 74.7135 21.7062L74.7135 21.7062Z" transform="matrix(1 0 0 1.00662 596 284)"/><path d="M122.058 61.6583 122.058 61.6583C121.429 67.3208 123.317 72.826 127.092 77.0729L127.092 77.0729C121.429 77.3875 116.239 80.2188 112.778 84.6229L112.778 84.6229C113.407 78.9604 111.52 73.4552 107.745 69.2083L107.745 69.2083C113.407 68.8937 118.598 66.0625 122.058 61.6583Z" transform="matrix(1 0 0 1.00662 596 284)"/><path d="M12.7825 95.9475 92.7913 95.9475 92.7913 108.572 12.7825 108.572Z" transform="matrix(0.704785 -0.709452 0.704785 0.709452 539.274 351.493)"/><path d="M82.5338 56.3376 102.26 56.3376 102.26 68.9623 82.5338 68.9623Z" transform="matrix(0.704785 -0.709452 0.704785 0.709452 578.855 367.996)"/></g></svg>