<svg width="151" height="151" xmlns="http://www.w3.org/2000/svg" xmlns:xlink="http://www.w3.org/1999/xlink" xml:space="preserve" overflow="hidden"><g transform="translate(-399 -269)"><path d="M474.478 284.729C441.486 284.729 414.74 311.475 414.74 344.467 414.74 377.459 441.486 404.205 474.478 404.205 507.47 404.205 534.216 377.459 534.216 344.467 534.216 344.465 534.216 344.463 534.216 344.461 534.227 311.483 507.503 284.74 474.525 284.729 474.509 284.729 474.494 284.729 474.478 284.729ZM503.764 349.785 479.796 349.785 479.796 373.747 469.16 373.747 469.16 349.779 445.192 349.779 445.192 339.143 469.16 339.143 469.16 315.175 479.796 315.175 479.796 339.143 503.764 339.143Z"/></g></svg>