<svg width="151" height="151" xmlns="http://www.w3.org/2000/svg" xmlns:xlink="http://www.w3.org/1999/xlink" xml:space="preserve" overflow="hidden"><g transform="translate(-369 -209)"><path d="M448.495 268.629C441.477 266.362 433.95 270.213 431.682 277.231 431.252 278.563 431.034 279.954 431.036 281.354 431.031 282.743 431.249 284.124 431.681 285.444Z"/><path d="M411.044 306.08 417.949 299.175C410.094 294.743 402.868 289.278 396.463 282.927 399.896 279.136 403.575 275.573 407.474 272.263 412.225 268.186 417.416 264.651 422.951 261.724 414.014 271.456 412.797 286.003 419.994 297.083L424.209 292.868C417.852 281.703 421.749 267.498 432.914 261.141 440.061 257.071 448.826 257.077 455.967 261.158L465.844 251.28C459.115 248.184 451.812 246.528 444.406 246.42 418.374 246.42 396.18 269.038 387.781 278.9 385.623 281.449 385.717 285.21 388.001 287.646 394.852 294.761 402.598 300.958 411.044 306.08Z"/><path d="M478.648 258.5 502.792 234.355 496.123 227.686 389.165 334.645 395.834 341.314 424.571 312.577C430.915 314.96 437.629 316.211 444.406 316.273 470.186 316.273 492.191 296.564 500.81 287.646 503.115 285.231 503.25 281.475 501.125 278.9 494.529 271.174 486.976 264.319 478.648 258.5ZM444.406 304.633C441.041 304.64 437.717 303.904 434.669 302.478L442.534 294.614C443.144 294.701 443.758 294.749 444.374 294.755 451.754 294.747 457.735 288.766 457.744 281.386 457.737 280.77 457.689 280.155 457.602 279.545L465.467 271.681C470.87 283.328 465.809 297.15 454.162 302.553 451.085 303.98 447.734 304.717 444.343 304.712ZM464.602 302.274C474.084 293.165 476.229 278.807 469.824 267.324L471.869 265.279C479.409 270.297 486.28 276.254 492.317 283.006 486.513 288.637 476.572 297.083 464.602 302.274Z"/></g></svg>