<svg width="151" height="151" xmlns="http://www.w3.org/2000/svg" xmlns:xlink="http://www.w3.org/1999/xlink" xml:space="preserve" overflow="hidden"><g transform="translate(-501 -66)"><path d="M576.478 81.7292C543.486 81.7292 516.74 108.475 516.74 141.467 516.74 174.459 543.486 201.205 576.478 201.205 609.47 201.205 636.216 174.459 636.216 141.467 636.216 141.465 636.216 141.463 636.216 141.461 636.227 108.483 609.503 81.7405 576.525 81.7292 576.509 81.7291 576.494 81.7291 576.478 81.7292ZM605.764 146.785 581.796 146.785 581.796 170.747 571.16 170.747 571.16 146.779 547.192 146.779 547.192 136.143 571.16 136.143 571.16 112.175 581.796 112.175 581.796 136.143 605.764 136.143Z" fill="#FFFFFF"/></g></svg>