<svg width="151" height="151" xmlns="http://www.w3.org/2000/svg" xmlns:xlink="http://www.w3.org/1999/xlink" xml:space="preserve" overflow="hidden"><g transform="translate(-350 -66)"><path d="M450.667 113.188C450.667 127.087 439.399 138.354 425.5 138.354 411.601 138.354 400.333 127.087 400.333 113.188 400.333 99.2883 411.601 88.0208 425.5 88.0208 439.399 88.0208 450.667 99.2883 450.667 113.188Z" fill="#FFFFFF"/><path d="M475.833 194.979 475.833 169.812C475.833 166.038 473.946 162.262 470.8 159.746 463.879 154.083 455.071 150.308 446.263 147.792 439.971 145.904 433.05 144.646 425.5 144.646 418.579 144.646 411.658 145.904 404.737 147.792 395.929 150.308 387.121 154.712 380.2 159.746 377.054 162.262 375.167 166.038 375.167 169.812L375.167 194.979 475.833 194.979Z" fill="#FFFFFF"/></g></svg>