<svg width="151" height="151" xmlns="http://www.w3.org/2000/svg" xmlns:xlink="http://www.w3.org/1999/xlink" xml:space="preserve" overflow="hidden"><g transform="translate(-520 -58)"><path d="M654.484 176.912 634.823 157.251C632.149 154.577 628.531 153.633 625.071 154.262L618.15 147.342C624.284 139.477 627.902 129.41 627.902 118.715 627.902 92.7615 606.668 71.5271 580.715 71.5271 554.761 71.5271 533.527 92.7615 533.527 118.715 533.527 144.668 554.761 165.902 580.715 165.902 591.41 165.902 601.32 162.284 609.342 156.15L616.263 163.071C615.633 166.531 616.577 170.149 619.251 172.823L638.912 192.484C641.115 194.686 643.946 195.787 646.777 195.787 649.608 195.787 652.44 194.686 654.642 192.484 658.731 188.08 658.731 181.159 654.484 176.912ZM580.557 156.307C559.795 156.307 542.807 139.32 542.807 118.557 542.807 97.7948 559.795 80.8073 580.557 80.8073 601.32 80.8073 618.307 97.7948 618.307 118.557 618.307 139.32 601.32 156.307 580.557 156.307Z"/></g></svg>