<svg width="520" height="520" xmlns="http://www.w3.org/2000/svg" xmlns:xlink="http://www.w3.org/1999/xlink" xml:space="preserve" overflow="hidden"><g transform="translate(-748 -718)"><text fill="#FFFFFF" font-family="Rubik,Rubik_MSFontService,sans-serif" font-weight="700" font-size="60" transform="matrix(1 0 0 1 1007.96 819)"> </text><text fill="#FFFFFF" font-family="Rubik,Rubik_MSFontService,sans-serif" font-weight="700" font-size="60" transform="matrix(1 0 0 1 1007.96 891)"> </text><text fill="#FFFFFF" font-family="Rubik,Rubik_MSFontService,sans-serif" font-weight="700" font-size="60" transform="matrix(1 0 0 1 1007.96 962)"> </text><text fill="#FFFFFF" font-family="Rubik,Rubik_MSFontService,sans-serif" font-weight="700" font-size="60" transform="matrix(1 0 0 1 1007.96 1034)"> </text><text fill="#FFFFFF" font-family="Rubik,Rubik_MSFontService,sans-serif" font-weight="700" font-size="60" transform="matrix(1 0 0 1 1007.96 1105)"> </text><text fill="#FFFFFF" font-family="Rubik,Rubik_MSFontService,sans-serif" font-weight="700" font-size="60" transform="matrix(1 0 0 1 844.405 1177)">BUILDINGS</text><text fill="#FFFFFF" font-family="Rubik,Rubik_MSFontService,sans-serif" font-weight="700" font-size="60" transform="matrix(1 0 0 1 1171.54 1177)"> </text><path d="M908 1010.61 928 1010.61 928 1030.72 908 1030.72 908 1010.61ZM908 970.389 928 970.389 928 990.5 908 990.5 908 970.389ZM908 930.167 928 930.167 928 950.278 908 950.278 908 930.167ZM948 1010.61 968 1010.61 968 1030.72 948 1030.72 948 1010.61ZM948 970.389 968 970.389 968 990.5 948 990.5 948 970.389ZM948 930.167 968 930.167 968 950.278 948 950.278 948 930.167ZM878 1081 928 1081 928 1050.83 948 1050.83 948 1081 998 1081 998 900 878 900 878 1081Z" fill="#FFFFFF" fill-rule="evenodd"/><path d="M1048 1010.5 1068 1010.5 1068 1030.64 1048 1030.64 1048 1010.5ZM1048 970.214 1068 970.214 1068 990.357 1048 990.357 1048 970.214ZM1088 1010.5 1108 1010.5 1108 1030.64 1088 1030.64 1088 1010.5ZM1088 970.214 1108 970.214 1108 990.357 1088 990.357 1088 970.214ZM1018 1081 1068 1081 1068 1050.79 1088 1050.79 1088 1081 1138 1081 1138 940 1018 940 1018 1081Z" fill="#FFFFFF" fill-rule="evenodd"/><path d="M1018 840 1038 840 1038 860 1018 860 1018 840ZM1018 800 1038 800 1038 820 1018 820 1018 800ZM998 820 978 820 978 800 998 800 998 820ZM998 860 978 860 978 840 998 840 998 860ZM1018 920 1068 920 1068 770 948 770 948 880 1018 880 1018 920Z" fill="#FFFFFF" fill-rule="evenodd"/></g></svg>