<svg width="520" height="524" xmlns="http://www.w3.org/2000/svg" xmlns:xlink="http://www.w3.org/1999/xlink" xml:space="preserve" overflow="hidden"><g transform="translate(-228 -718)"><text fill="#FFFFFF" font-family="Aptos,Aptos_MSFontService,sans-serif" font-weight="700" font-size="73" transform="matrix(1 0 0 1 392.61 1178)">Selfie</text><path d="M499 993 499 963.096C498.926 959.637 497.293 956.393 494.55 954.26 488.099 949.355 480.721 945.786 472.855 943.766 466.906 941.957 460.722 941.025 454.5 941 448.285 941.107 442.111 942.034 436.142 943.759 428.365 946.013 421.03 949.561 414.45 954.253 411.706 956.386 410.072 959.63 410 963.089L410 992.993Z" fill="#F2F2F2" fill-rule="evenodd"/><path d="M454.5 884C440.417 884 429 895.417 429 909.5 429 923.584 440.417 935 454.5 935 468.584 935 480 923.584 480 909.5 480 895.417 468.584 884 454.5 884ZM454.5 928.294C448.086 928.3 442.228 924.655 439.399 918.899L469.598 918.899C466.771 924.655 460.913 928.301 454.5 928.294Z" fill="#F2F2F2" fill-rule="evenodd"/><path d="M516.273 930.508 516.273 1025.24 392.727 1025.24 392.727 846.757 516.273 846.757 516.273 886.803C516.654 886.539 517.024 886.264 517.422 886.024 521.169 883.754 525.465 882.552 529.845 882.55L530 882.55 530 822.73C529.977 815.156 523.845 809.023 516.273 809L392.727 809C385.155 809.023 379.023 815.156 379 822.73L379 1049.27C379.023 1056.84 385.155 1062.98 392.727 1063L516.273 1063C523.845 1062.98 529.977 1056.84 530 1049.27L530 953.162ZM442.489 822.73 466.512 822.73C469.354 822.73 471.659 825.035 471.659 827.878 471.659 830.722 469.354 833.027 466.512 833.027L442.489 833.027C439.646 833.027 437.341 830.722 437.341 827.878 437.341 825.035 439.646 822.73 442.489 822.73ZM425.33 822.73C428.173 822.73 430.477 825.035 430.477 827.878 430.477 830.722 428.173 833.027 425.33 833.027 422.487 833.027 420.182 830.722 420.182 827.878 420.182 825.035 422.487 822.73 425.33 822.73Z" fill="#F2F2F2" fill-rule="evenodd"/><path d="M540.546 960.064 540.546 1049.15C540.531 1062.39 529.874 1073.12 516.723 1073.14L514 1072.74 534.42 1087.45C539.733 1091.27 546.991 1090.75 551.72 1086.22L590.774 1048.81C595.59 1044.19 596.388 1036.75 592.662 1031.2L578.865 1010.67 578.865 1010.59 564.945 939.593C564.709 938.467 564.332 937.376 563.822 936.345 563.545 935.604 563.204 934.89 562.801 934.21L541.986 899.613C538.093 893.136 529.723 891.063 523.289 894.982 516.856 898.901 514.797 907.329 518.69 913.806L538.623 946.916 540.621 957.113Z" fill="#F2F2F2" fill-rule="evenodd"/></g></svg>