<svg width="520" height="520" xmlns="http://www.w3.org/2000/svg" xmlns:xlink="http://www.w3.org/1999/xlink" xml:space="preserve" overflow="hidden"><g transform="translate(-2047 -1757)"><text fill="#FFFFFF" font-family="Rubik,Rubik_MSFontService,sans-serif" font-weight="700" font-size="60" transform="matrix(1 0 0 1 2307.17 1859)"> </text><text fill="#FFFFFF" font-family="Rubik,Rubik_MSFontService,sans-serif" font-weight="700" font-size="60" transform="matrix(1 0 0 1 2307.17 1931)"> </text><text fill="#FFFFFF" font-family="Rubik,Rubik_MSFontService,sans-serif" font-weight="700" font-size="60" transform="matrix(1 0 0 1 2307.17 2002)"> </text><text fill="#FFFFFF" font-family="Rubik,Rubik_MSFontService,sans-serif" font-weight="700" font-size="60" transform="matrix(1 0 0 1 2307.17 2074)"> </text><text fill="#FFFFFF" font-family="Rubik,Rubik_MSFontService,sans-serif" font-weight="700" font-size="60" transform="matrix(1 0 0 1 2307.17 2145)"> </text><text fill="#FFFFFF" font-family="Rubik,Rubik_MSFontService,sans-serif" font-weight="700" font-size="60" transform="matrix(1 0 0 1 2176.27 2217)">MUSEUM</text><text fill="#FFFFFF" font-family="Rubik,Rubik_MSFontService,sans-serif" font-weight="700" font-size="60" transform="matrix(1 0 0 1 2438.1 2217)"> </text><g><g><g><path d="M256.75 243.75 256.75 237.25 243.75 237.25 243.75 126.75 256.75 126.75 256.75 120.25 266.5 120.25 266.5 100.75 256.75 100.75 156 39 55.25 100.75 45.5 100.75 45.5 120.25 55.25 120.25 55.25 126.75 68.2499 126.75 68.2499 237.25 55.25 237.25 55.25 243.75 32.5 260 32.5 273 156 273 279.5 273 279.5 260 256.75 243.75ZM107.25 237.25 87.7499 237.25 87.7499 126.75 107.25 126.75 107.25 237.25ZM146.25 237.25 126.75 237.25 126.75 126.75 146.25 126.75 146.25 237.25ZM152.75 94.2499C145.6 94.2499 139.75 88.3999 139.75 81.2499 139.75 74.0999 145.6 68.2499 152.75 68.2499 159.9 68.2499 165.75 74.0999 165.75 81.2499 165.75 88.3999 159.9 94.2499 152.75 94.2499ZM185.25 237.25 165.75 237.25 165.75 126.75 185.25 126.75 185.25 237.25ZM224.25 237.25 204.75 237.25 204.75 126.75 224.25 126.75 224.25 237.25Z" fill="#FFFFFF" transform="matrix(1 0 0 1 2151 1809)"/></g></g></g></g></svg>