<svg width="520" height="525" xmlns="http://www.w3.org/2000/svg" xmlns:xlink="http://www.w3.org/1999/xlink" xml:space="preserve" overflow="hidden"><g transform="translate(-2567 -1757)"><text fill="#FFFFFF" font-family="Aptos,Aptos_MSFontService,sans-serif" font-weight="700" font-size="73" transform="matrix(1 0 0 1 2752.39 2217)">Park</text><path d="M2814.04 1928.71 2839.55 1928.71 2870.91 2003.79 2783.09 2003.79 2814.04 1928.71ZM2709.91 1887 2709.91 1928.71 2769.71 1928.71 2738.35 2003.79 2643 2003.79 2643 2028.82 2727.89 2028.82 2689.42 2121 2734.16 2121 2772.64 2028.82 2881.36 2028.82 2919.84 2121 2964.58 2121 2926.11 2028.82 3011 2028.82 3011 2003.79 2915.65 2003.79 2884.29 1928.71 2944.09 1928.71 2944.09 1887 2709.91 1887Z" fill="#F2F2F2" fill-rule="evenodd"/></g></svg>