<svg width="519" height="520" xmlns="http://www.w3.org/2000/svg" xmlns:xlink="http://www.w3.org/1999/xlink" xml:space="preserve" overflow="hidden"><g transform="translate(-1528 -718)"><text fill="#FFFFFF" font-family="Rubik,Rubik_MSFontService,sans-serif" font-weight="700" font-size="60" transform="matrix(1 0 0 1 1787.5 819)"> </text><text fill="#FFFFFF" font-family="Rubik,Rubik_MSFontService,sans-serif" font-weight="700" font-size="60" transform="matrix(1 0 0 1 1787.5 891)"> </text><text fill="#FFFFFF" font-family="Rubik,Rubik_MSFontService,sans-serif" font-weight="700" font-size="60" transform="matrix(1 0 0 1 1787.5 962)"> </text><text fill="#FFFFFF" font-family="Rubik,Rubik_MSFontService,sans-serif" font-weight="700" font-size="60" transform="matrix(1 0 0 1 1787.5 1034)"> </text><text fill="#FFFFFF" font-family="Rubik,Rubik_MSFontService,sans-serif" font-weight="700" font-size="60" transform="matrix(1 0 0 1 1787.5 1105)"> </text><text fill="#FFFFFF" font-family="Rubik,Rubik_MSFontService,sans-serif" font-weight="700" font-size="60" transform="matrix(1 0 0 1 1674.64 1177)">BRIDGE</text><text fill="#FFFFFF" font-family="Rubik,Rubik_MSFontService,sans-serif" font-weight="700" font-size="60" transform="matrix(1 0 0 1 1900.36 1177)"> </text><g><g><g><path d="M275.04 235.064C268.673 232.597 261.94 231.207 255.117 230.95 248.293 231.207 241.561 232.597 235.194 235.064 230.953 236.77 226.471 237.798 221.911 238.109L221.911 238.109C217.352 237.798 212.869 236.77 208.629 235.064 202.262 232.597 195.529 231.207 188.706 230.95 181.882 231.207 175.149 232.597 168.782 235.064 164.542 236.77 160.06 237.798 155.5 238.109 150.94 237.798 146.458 236.77 142.218 235.064 135.851 232.597 129.118 231.207 122.294 230.95 115.471 231.207 108.738 232.597 102.371 235.064 98.1305 236.77 93.6482 237.798 89.0885 238.109 84.5288 237.798 80.0465 236.77 75.8062 235.064 69.4391 232.597 62.7063 231.207 55.8828 230.95 49.0592 231.207 42.3264 232.597 35.9593 235.064 31.7192 236.77 27.2369 237.798 22.6771 238.109L22.6771 257.547C29.5004 257.29 36.2334 255.899 42.6005 253.432 46.8301 251.661 51.3127 250.568 55.8828 250.193 60.4528 250.568 64.9354 251.661 69.165 253.432 75.5321 255.899 82.2649 257.29 89.0885 257.547 95.912 257.29 102.645 255.899 109.012 253.432 113.241 251.661 117.724 250.568 122.294 250.193 126.854 250.504 131.336 251.532 135.576 253.238 141.928 255.786 148.663 257.242 155.5 257.547 162.323 257.29 169.056 255.899 175.423 253.432 179.653 251.661 184.135 250.568 188.706 250.193 193.276 250.568 197.758 251.661 201.988 253.432 208.355 255.899 215.088 257.29 221.911 257.547 228.735 257.29 235.468 255.899 241.835 253.432 246.064 251.661 250.547 250.568 255.117 250.193 259.677 250.504 264.159 251.532 268.399 253.238 274.75 255.786 281.486 257.242 288.323 257.547L288.323 238.109C283.763 237.798 279.281 236.77 275.04 235.064Z" fill="#FFFFFF" transform="matrix(1 0 0 1.00322 1632 770)"/><path d="M275.04 273.939C268.673 271.472 261.94 270.082 255.117 269.825 248.293 270.082 241.561 271.472 235.194 273.939 230.953 275.645 226.471 276.672 221.911 276.984L221.911 276.984C217.352 276.672 212.869 275.645 208.629 273.939 202.262 271.472 195.529 270.082 188.706 269.825 181.882 270.082 175.149 271.472 168.782 273.939 164.542 275.645 160.06 276.672 155.5 276.984 150.94 276.672 146.458 275.645 142.218 273.939 135.851 271.472 129.118 270.082 122.294 269.825 115.471 270.082 108.738 271.472 102.371 273.939 98.1305 275.645 93.6482 276.672 89.0885 276.984 84.5288 276.672 80.0465 275.645 75.8062 273.939 69.4391 271.472 62.7063 270.082 55.8828 269.825 49.0592 270.082 42.3264 271.472 35.9593 273.939 31.7192 275.645 27.2369 276.672 22.6771 276.984L22.6771 296.422C29.5004 296.165 36.2334 294.774 42.6005 292.307 46.8301 290.536 51.3127 289.443 55.8828 289.068 60.4528 289.443 64.9354 290.536 69.165 292.307 75.5321 294.774 82.2649 296.165 89.0885 296.422 95.912 296.165 102.645 294.774 109.012 292.307 113.241 290.536 117.724 289.443 122.294 289.068 126.854 289.379 131.336 290.407 135.576 292.113 141.928 294.661 148.663 296.117 155.5 296.422 162.323 296.165 169.056 294.774 175.423 292.307 179.653 290.536 184.135 289.443 188.706 289.068 193.276 289.443 197.758 290.536 201.988 292.307 208.355 294.774 215.088 296.165 221.911 296.422 228.735 296.165 235.468 294.774 241.835 292.307 246.064 290.536 250.547 289.443 255.117 289.068 259.677 289.379 264.159 290.407 268.399 292.113 274.75 294.661 281.486 296.117 288.323 296.422L288.323 276.984C283.763 276.672 279.281 275.645 275.04 273.939Z" fill="#FFFFFF" transform="matrix(1 0 0 1.00322 1632 770)"/><path d="M288.323 127.154 288.323 114.195C256.218 114.195 226.965 90.8055 226.771 65.0508L226.771 64.7916 213.812 64.7916 213.812 65.0508C213.618 89.9308 181.417 114.066 155.5 114.066 129.583 114.066 97.3818 89.9308 97.1874 65.0508L97.1874 64.7916 84.2291 64.7916 84.2291 65.0508C84.0347 90.9674 54.7813 114.195 22.6771 114.195L22.6771 127.154C25.9261 127.144 29.1716 126.939 32.3958 126.538L32.3958 152.26 22.6771 152.26 22.6771 178.177 80.9895 178.177 80.9895 216.663C83.8954 217.508 86.881 218.051 89.8984 218.283 93.482 218.023 97.019 217.316 100.427 216.177L100.427 178.177 210.573 178.177 210.573 217.052C213.475 217.912 216.462 218.456 219.482 218.672 223.065 218.412 226.602 217.704 230.01 216.566L230.01 178.177 288.323 178.177 288.323 152.26 278.604 152.26 278.604 126.538C281.828 126.939 285.074 127.144 288.323 127.154ZM58.3125 152.26 45.3541 152.26 45.3541 123.914C49.8034 122.637 54.1379 120.99 58.3125 118.99ZM80.9895 152.26 71.2708 152.26 71.2708 111.182C74.7533 108.596 78.0049 105.713 80.9895 102.565ZM110.146 152.26 100.427 152.26 100.427 102.565C103.413 105.701 106.665 108.574 110.146 111.15ZM187.896 118.957 187.896 152.26 174.937 152.26 174.937 123.882C179.387 122.605 183.721 120.958 187.896 118.957ZM161.979 126.506 161.979 152.422 149.021 152.422 149.021 126.506C151.159 126.765 153.329 126.959 155.5 127.056 157.67 127.154 159.841 126.765 161.979 126.506ZM123.104 118.957C127.279 120.947 131.614 122.583 136.062 123.849L136.062 152.26 123.104 152.26ZM200.854 152.26 200.854 111.15C204.335 108.574 207.587 105.702 210.573 102.565L210.573 152.26ZM230.01 102.565C232.995 105.713 236.246 108.596 239.729 111.182L239.729 152.26 230.01 152.26ZM265.646 152.26 252.687 152.26 252.687 118.99C256.862 120.99 261.196 122.637 265.646 123.914Z" fill="#FFFFFF" transform="matrix(1 0 0 1.00322 1632 770)"/></g></g></g></g></svg>