<svg width="520" height="524" xmlns="http://www.w3.org/2000/svg" xmlns:xlink="http://www.w3.org/1999/xlink" xml:space="preserve" overflow="hidden"><g transform="translate(-2567 -1238)"><text fill="#FFFFFF" font-family="Aptos,Aptos_MSFontService,sans-serif" font-weight="700" font-size="73" transform="matrix(1 0 0 1 2696.82 1697)">Cinema</text><g><g><g><path d="M87.7499 104C87.7499 107.59 84.8398 110.5 81.2499 110.5 77.6601 110.5 74.7499 107.59 74.7499 104 74.7499 100.41 77.6601 97.4999 81.2499 97.4999 84.8398 97.4999 87.7499 100.41 87.7499 104Z" fill="#FFFFFF" transform="matrix(1 0 0 1 2671 1289)"/><path d="M87.7499 130C87.7499 133.59 84.8398 136.5 81.2499 136.5 77.6601 136.5 74.7499 133.59 74.7499 130 74.7499 126.41 77.6601 123.5 81.2499 123.5 84.8398 123.5 87.7499 126.41 87.7499 130Z" fill="#FFFFFF" transform="matrix(1 0 0 1 2671 1289)"/><path d="M74.7499 117C74.7499 120.59 71.8398 123.5 68.2499 123.5 64.6601 123.5 61.75 120.59 61.75 117 61.75 113.41 64.6601 110.5 68.2499 110.5 71.8398 110.5 74.7499 113.41 74.7499 117Z" fill="#FFFFFF" transform="matrix(1 0 0 1 2671 1289)"/><path d="M100.75 117C100.75 120.59 97.8398 123.5 94.2499 123.5 90.6601 123.5 87.7499 120.59 87.7499 117 87.7499 113.41 90.6601 110.5 94.2499 110.5 97.8398 110.5 100.75 113.41 100.75 117Z" fill="#FFFFFF" transform="matrix(1 0 0 1 2671 1289)"/><path d="M178.75 90.9999C178.75 94.5898 175.84 97.4999 172.25 97.4999 168.66 97.4999 165.75 94.5898 165.75 90.9999 165.75 87.4101 168.66 84.4999 172.25 84.4999 175.84 84.4999 178.75 87.4101 178.75 90.9999Z" fill="#FFFFFF" transform="matrix(1 0 0 1 2671 1289)"/><path d="M178.75 117C178.75 120.59 175.84 123.5 172.25 123.5 168.66 123.5 165.75 120.59 165.75 117 165.75 113.41 168.66 110.5 172.25 110.5 175.84 110.5 178.75 113.41 178.75 117Z" fill="#FFFFFF" transform="matrix(1 0 0 1 2671 1289)"/><path d="M165.75 104C165.75 107.59 162.84 110.5 159.25 110.5 155.66 110.5 152.75 107.59 152.75 104 152.75 100.41 155.66 97.4999 159.25 97.4999 162.84 97.4999 165.75 100.41 165.75 104Z" fill="#FFFFFF" transform="matrix(1 0 0 1 2671 1289)"/><path d="M191.75 104C191.75 107.59 188.84 110.5 185.25 110.5 181.66 110.5 178.75 107.59 178.75 104 178.75 100.41 181.66 97.4999 185.25 97.4999 188.84 97.4999 191.75 100.41 191.75 104Z" fill="#FFFFFF" transform="matrix(1 0 0 1 2671 1289)"/><path d="M266.5 146.25 247 165.75 221 165.75 221 237.25 247 237.25 266.5 256.75 286 256.75 286 146.25Z" fill="#FFFFFF" transform="matrix(1 0 0 1 2671 1289)"/><path d="M172.25 133.25C156 133.25 143 120.25 143 104 143 87.7499 156 74.7499 172.25 74.7499 188.5 74.7499 201.5 87.7499 201.5 104 201.5 120.25 188.5 133.25 172.25 133.25ZM182 237.25C178.425 237.25 175.5 234.325 175.5 230.75 175.5 227.175 178.425 224.25 182 224.25 185.575 224.25 188.5 227.175 188.5 230.75 188.5 234.325 185.575 237.25 182 237.25ZM120.25 146.25C124.475 140.4 127.725 133.9 129.025 126.425 133.25 134.55 140.075 141.375 147.875 146.25L120.25 146.25ZM81.2499 146.25C65 146.25 52 133.25 52 117 52 100.75 65 87.7499 81.2499 87.7499 97.4999 87.7499 110.5 100.75 110.5 117 110.5 133.25 97.4999 146.25 81.2499 146.25ZM196.3 146.25C210.925 137.8 221 122.2 221 104 221 77.0249 199.225 55.25 172.25 55.25 148.525 55.25 129.025 72.1499 124.475 94.5749 116.35 78.9749 100.1 68.2499 81.2499 68.2499 54.275 68.2499 32.5 90.0249 32.5 117 32.5 132.925 40.3 146.9 52 156L52 165.75 45.5 165.75 39 159.25 26 159.25 26 191.75 39 191.75 45.5 185.25 52 185.25 52 243.75C52 250.9 57.85 256.75 65 256.75L195 256.75C202.15 256.75 208 250.9 208 243.75L208 159.25C208 152.425 202.8 146.9 196.3 146.25Z" fill="#FFFFFF" transform="matrix(1 0 0 1 2671 1289)"/></g></g></g></g></svg>