<svg width="523" height="519" xmlns="http://www.w3.org/2000/svg" xmlns:xlink="http://www.w3.org/1999/xlink" xml:space="preserve" overflow="hidden"><g transform="translate(-2567 -1238)"><text fill="#FFFFFF" font-family="Rubik,Rubik_MSFontService,sans-serif" font-weight="700" font-size="60" transform="matrix(1 0 0 1 2826.87 1339)"> </text><text fill="#FFFFFF" font-family="Rubik,Rubik_MSFontService,sans-serif" font-weight="700" font-size="60" transform="matrix(1 0 0 1 2826.87 1411)"> </text><text fill="#FFFFFF" font-family="Rubik,Rubik_MSFontService,sans-serif" font-weight="700" font-size="60" transform="matrix(1 0 0 1 2826.87 1482)"> </text><text fill="#FFFFFF" font-family="Rubik,Rubik_MSFontService,sans-serif" font-weight="700" font-size="60" transform="matrix(1 0 0 1 2826.87 1554)"> </text><text fill="#FFFFFF" font-family="Rubik,Rubik_MSFontService,sans-serif" font-weight="700" font-size="60" transform="matrix(1 0 0 1 2826.87 1625)"> </text><text fill="#FFFFFF" font-family="Rubik,Rubik_MSFontService,sans-serif" font-weight="700" font-size="60" transform="matrix(1 0 0 1 2612.6 1697)">STREET/PATH</text><text fill="#FFFFFF" font-family="Rubik,Rubik_MSFontService,sans-serif" font-weight="700" font-size="60" transform="matrix(1 0 0 1 3041.14 1697)"> </text><path d="M2765.38 1434.04 2778.07 1434.04 2747.54 1362 2716.93 1434.04 2729.62 1434.04 2709 1476.84 2739.61 1476.84 2739.61 1496 2755.47 1496 2755.47 1476.84 2786 1476.84 2765.38 1434.04 2765.38 1434.04Z" fill="#F2F2F2" fill-rule="evenodd"/><path d="M2956.54 1382.08 2965.44 1382.08 2944.03 1331 2922.56 1382.08 2931.46 1382.08 2917 1412.42 2938.47 1412.42 2938.47 1426 2949.59 1426 2949.59 1412.42 2971 1412.42 2956.54 1382.08 2956.54 1382.08Z" fill="#F2F2F2" fill-rule="evenodd"/><path d="M2850.18 1405.23C2864.58 1415 2903.09 1433.73 2909.61 1438.38 2918.73 1444.89 2948.36 1459.54 2925.56 1499.17 2902.77 1538.8 2881.66 1568 2867.68 1589L2679 1589C2725.91 1550.39 2798.14 1518.53 2829.36 1495.96 2860.57 1473.38 2862.27 1456.33 2847.26 1437.53 2833.53 1420.31 2821.21 1415.46 2816.16 1405.1 2807.17 1386.65 2839.63 1378.84 2850.7 1379 2852.04 1379 2864.43 1379 2864.43 1379 2864.43 1379 2835.78 1395.46 2850.18 1405.23Z" fill="#F2F2F2" fill-rule="evenodd"/></g></svg>