<svg width="520" height="524" xmlns="http://www.w3.org/2000/svg" xmlns:xlink="http://www.w3.org/1999/xlink" xml:space="preserve" overflow="hidden"><g transform="translate(-1787 -718)"><text fill="#FFFFFF" font-family="Aptos,Aptos_MSFontService,sans-serif" font-weight="700" font-size="73" transform="matrix(1 0 0 1 1968.28 1178)">2 km</text><path d="M74.5001 0C115.645-1.92243e-14 149 33.8026 149 75.5001 149 117.198 115.645 151 74.5001 151 33.3548 151-9.61218e-15 117.198-9.61218e-15 75.5001-1.92244e-14 67.1813 1.35662 58.9196 4.01503 51.0491" stroke="#FFFFFF" stroke-width="20.625" stroke-miterlimit="8" fill="none" fill-rule="evenodd" transform="matrix(-1 0 0 1 2122.5 849.5)"/><path d="M2005 924.5C2005 901.028 2024.03 882 2047.5 882 2070.97 882 2090 901.028 2090 924.5 2090 947.972 2070.97 967 2047.5 967 2024.03 967 2005 947.972 2005 924.5Z" fill="#FFFFFF" fill-rule="evenodd"/><path d="M117 0C181.617-3.0046e-14 234 52.8304 234 118 234 183.17 181.617 236 117 236 52.3827 236-1.5023e-14 183.17-1.5023e-14 118-1.5023e-14 105.97 1.82402 94.0108 5.40881 82.537" stroke="#FFFFFF" stroke-width="20.625" stroke-miterlimit="8" fill="none" fill-rule="evenodd" transform="matrix(-1 0 0 1 2164.5 807.5)"/><path d="M0 0 0.000360892 129.921" stroke="#FFFFFF" stroke-width="20.625" stroke-miterlimit="8" fill="none" fill-rule="evenodd" transform="matrix(1 0 0 -1 2047.5 926.421)"/></g></svg>