<svg width="520" height="520" xmlns="http://www.w3.org/2000/svg" xmlns:xlink="http://www.w3.org/1999/xlink" xml:space="preserve" overflow="hidden"><g transform="translate(-228 -1757)"><text fill="#FFFFFF" font-family="Rubik,Rubik_MSFontService,sans-serif" font-weight="700" font-size="60" transform="matrix(1 0 0 1 488.287 1859)"> </text><text fill="#FFFFFF" font-family="Rubik,Rubik_MSFontService,sans-serif" font-weight="700" font-size="60" transform="matrix(1 0 0 1 488.287 1931)"> </text><text fill="#FFFFFF" font-family="Rubik,Rubik_MSFontService,sans-serif" font-weight="700" font-size="60" transform="matrix(1 0 0 1 488.287 2002)"> </text><text fill="#FFFFFF" font-family="Rubik,Rubik_MSFontService,sans-serif" font-weight="700" font-size="60" transform="matrix(1 0 0 1 488.287 2074)"> </text><text fill="#FFFFFF" font-family="Rubik,Rubik_MSFontService,sans-serif" font-weight="700" font-size="60" transform="matrix(1 0 0 1 488.287 2145)"> </text><text fill="#FFFFFF" font-family="Rubik,Rubik_MSFontService,sans-serif" font-weight="700" font-size="60" transform="matrix(1 0 0 1 410.944 2217)">TREE</text><text fill="#FFFFFF" font-family="Rubik,Rubik_MSFontService,sans-serif" font-weight="700" font-size="60" transform="matrix(1 0 0 1 565.631 2217)"> </text><g><g><g><path d="M606.187 1912.75C602.062 1899 593.125 1887.31 580.75 1880.09 580.75 1879.06 580.75 1878.03 580.75 1877 581.094 1853.62 561.844 1834.37 538.125 1834.37 530.906 1834.37 524.375 1836.09 518.531 1839.19 510.625 1827.84 497.906 1820.62 483.125 1820.62 464.219 1820.62 448.062 1833 442.219 1850.19 436.031 1846.75 428.812 1844.69 421.25 1844.69 397.531 1844.69 378.281 1863.94 378.281 1887.66 378.281 1896.59 381.031 1904.84 385.844 1911.72 363.5 1917.56 347.344 1937.5 347.344 1961.56 347.344 1990.09 370.375 2013.12 398.906 2013.12 403.031 2013.12 407.156 2012.44 411.281 2011.75 427.781 2019.31 464.219 2041.31 465.937 2066.41L464.562 2099.06C464.562 2100.78 463.875 2102.5 462.5 2103.88L459.406 2106.97C457.344 2109.38 458.719 2112.81 461.812 2112.81L499.625 2112.81C502.375 2112.81 503.75 2110.06 502.719 2107.66 502.719 2107.66 501 2104.22 499.969 2103.19 498.937 2101.81 497.906 2100.44 497.906 2098.38L496.531 2056.78C496.531 2056.44 496.875 2056.09 496.875 2056.09 499.625 2043.72 516.125 2035.47 533.656 2026.87 551.187 2018.28 571.812 2007.97 578.344 1990.09 582.469 1991.47 586.937 1992.5 591.75 1992.5 614.437 1992.5 633 1973.94 633 1951.25 632.656 1933.72 621.656 1918.59 606.187 1912.75ZM482.437 2017.59C481.406 2009 479.344 1998.69 475.219 1988.72 483.812 1987.69 491.719 1984.94 498.594 1980.81 491.375 1993.19 485.875 2006.59 482.437 2017.59ZM430.531 2002.12C436.719 1997.31 441.875 1990.78 445.656 1983.56 448.75 1984.94 451.844 1986.31 455.281 1987 464.219 2001.78 465.937 2018.62 465.937 2029.28 454.937 2017.59 440.844 2008.31 430.531 2002.12ZM525.75 2011.41C515.781 2016.22 505.469 2021.37 497.219 2027.56 501.687 2013.47 509.594 1992.16 521.969 1976.69 530.562 1982.19 540.875 1985.28 551.875 1985.28 555.312 1985.28 558.406 1984.94 561.5 1984.25 557.719 1994.91 544.312 2002.12 525.75 2011.41Z" fill="#F2F2F2"/></g></g></g></g></svg>