<svg width="520" height="520" xmlns="http://www.w3.org/2000/svg" xmlns:xlink="http://www.w3.org/1999/xlink" xml:space="preserve" overflow="hidden"><g transform="translate(-2047 -1757)"><text fill="#FFFFFF" font-family="Rubik,Rubik_MSFontService,sans-serif" font-weight="700" font-size="60" transform="matrix(1 0 0 1 2307.17 1859)"> </text><text fill="#FFFFFF" font-family="Rubik,Rubik_MSFontService,sans-serif" font-weight="700" font-size="60" transform="matrix(1 0 0 1 2307.17 1931)"> </text><text fill="#FFFFFF" font-family="Rubik,Rubik_MSFontService,sans-serif" font-weight="700" font-size="60" transform="matrix(1 0 0 1 2307.17 2002)"> </text><text fill="#FFFFFF" font-family="Rubik,Rubik_MSFontService,sans-serif" font-weight="700" font-size="60" transform="matrix(1 0 0 1 2307.17 2074)"> </text><text fill="#FFFFFF" font-family="Rubik,Rubik_MSFontService,sans-serif" font-weight="700" font-size="60" transform="matrix(1 0 0 1 2307.17 2145)"> </text><text fill="#FFFFFF" font-family="Rubik,Rubik_MSFontService,sans-serif" font-weight="700" font-size="60" transform="matrix(1 0 0 1 2216.38 2217)">500 M</text><text fill="#FFFFFF" font-family="Rubik,Rubik_MSFontService,sans-serif" font-weight="700" font-size="60" transform="matrix(1 0 0 1 2397.99 2217)"> </text><path d="M74.5 0C115.645-1.9097e-14 149 33.5786 149 74.9999 149 116.421 115.645 150 74.5 150 33.3547 150-0.000164042 116.421-0.000164042 74.9999-0.000164042 66.6848 1.37339 58.4275 4.06429 50.566" stroke="#FFFFFF" stroke-width="20.625" stroke-miterlimit="8" fill="none" fill-rule="evenodd" transform="matrix(-1 0 0 1 2382.5 1889.5)"/><path d="M2265 1964C2265 1940.25 2284.03 1921 2307.5 1921 2330.97 1921 2350 1940.25 2350 1964 2350 1987.75 2330.97 2007 2307.5 2007 2284.03 2007 2265 1987.75 2265 1964Z" fill="#FFFFFF" fill-rule="evenodd"/><path d="M117 0C181.617-3.00459e-14 234 52.8303 234 118 234 183.169 181.617 236 117 236 52.3826 236-1.5023e-14 183.169-1.5023e-14 118-1.5023e-14 105.97 1.82401 94.0107 5.4088 82.5368" stroke="#FFFFFF" stroke-width="20.625" stroke-miterlimit="8" fill="none" fill-rule="evenodd" transform="matrix(-1 0 0 1 2424.5 1846.5)"/><path d="M0 0 0.000360892 129.921" stroke="#FFFFFF" stroke-width="20.625" stroke-miterlimit="8" fill="none" fill-rule="evenodd" transform="matrix(1 0 0 -1 2307.5 1965.42)"/></g></svg>