<svg width="519" height="520" xmlns="http://www.w3.org/2000/svg" xmlns:xlink="http://www.w3.org/1999/xlink" xml:space="preserve" overflow="hidden"><g transform="translate(-1788 -198)"><path d="M91.0001 0C141.258-2.31711e-14 182 40.7421 182 91.0001 182 141.258 141.258 182 91.0001 182 40.7421 182 0 141.258 0 91.0001 2.31711e-14 80.848 1.6988 70.7674 5.02604 61.176" stroke="#000000" stroke-width="27.5" stroke-miterlimit="8" fill="none" fill-rule="evenodd" transform="matrix(-1 0 0 1 2138 367)"/><path d="M1995 458C1995 429.281 2018.28 406 2047 406 2075.72 406 2099 429.281 2099 458 2099 486.719 2075.72 510 2047 510 2018.28 510 1995 486.719 1995 458Z" fill-rule="evenodd"/><path d="M143 0C221.977-3.64116e-14 286 64.0233 286 143 286 221.977 221.977 286 143 286 64.0233 286 0 221.977 0 143-1.82058e-14 128.304 2.2654 113.696 6.71639 99.6897" stroke="#000000" stroke-width="27.5" stroke-miterlimit="8" fill="none" fill-rule="evenodd" transform="matrix(-1 0 0 1 2190 315)"/><path d="M0 0 0.000360892 155.906" stroke="#000000" stroke-width="27.5" stroke-miterlimit="8" fill="none" fill-rule="evenodd" transform="matrix(1 0 0 -1 2047 457.906)"/></g></svg>