<svg width="520" height="524" xmlns="http://www.w3.org/2000/svg" xmlns:xlink="http://www.w3.org/1999/xlink" xml:space="preserve" overflow="hidden"><g transform="translate(-1008 -718)"><text fill="#FFFFFF" font-family="Aptos,Aptos_MSFontService,sans-serif" font-weight="700" font-size="73" transform="matrix(1 0 0 1 1109.56 1178)">Trai</text><text fill="#FFFFFF" font-family="Aptos,Aptos_MSFontService,sans-serif" font-weight="700" font-size="73" transform="matrix(1 0 0 1 1228.41 1178)">n Line</text><path d="M1332.25 918.572C1332.25 923.066 1328.84 926.743 1324.67 926.743L1203.33 926.743C1199.16 926.743 1195.75 923.066 1195.75 918.572L1195.75 836.857C1195.75 827.869 1202.57 820.514 1210.92 820.514L1241.25 820.514C1241.25 816.02 1244.66 812.343 1248.83 812.343L1279.17 812.343C1283.34 812.343 1286.75 816.02 1286.75 820.514L1317.08 820.514C1325.43 820.514 1332.25 827.869 1332.25 836.857L1332.25 918.572ZM1320.88 1016.63C1314.43 1016.63 1309.5 1011.32 1309.5 1004.37 1309.5 997.426 1314.43 992.114 1320.88 992.114 1327.32 992.114 1332.25 997.426 1332.25 1004.37 1332.25 1011.32 1327.32 1016.63 1320.88 1016.63ZM1207.12 1016.63C1200.68 1016.63 1195.75 1011.32 1195.75 1004.37 1195.75 997.426 1200.68 992.114 1207.12 992.114 1213.57 992.114 1218.5 997.426 1218.5 1004.37 1218.5 1011.32 1213.57 1016.63 1207.12 1016.63ZM1324.67 796 1271.58 796 1256.42 796 1203.33 796C1186.65 796 1173 810.709 1173 828.686L1173 1016.63C1173 1030.11 1183.24 1041.14 1195.75 1041.14L1199.16 1041.14 1182.1 1082 1198.78 1082 1215.85 1041.14 1312.15 1041.14 1329.22 1082 1345.9 1082 1328.84 1041.14 1332.25 1041.14C1344.76 1041.14 1355 1030.11 1355 1016.63L1355 828.686C1355 810.709 1341.35 796 1324.67 796Z" fill="#FFFFFF" fill-rule="evenodd"/></g></svg>