<svg width="519" height="519" xmlns="http://www.w3.org/2000/svg" xmlns:xlink="http://www.w3.org/1999/xlink" xml:space="preserve" overflow="hidden"><g transform="translate(-1528 -1238)"><text fill="#FFFFFF" font-family="Rubik,Rubik_MSFontService,sans-serif" font-weight="700" font-size="60" transform="matrix(1 0 0 1 1787.49 1339)"> </text><text fill="#FFFFFF" font-family="Rubik,Rubik_MSFontService,sans-serif" font-weight="700" font-size="60" transform="matrix(1 0 0 1 1787.49 1411)"> </text><text fill="#FFFFFF" font-family="Rubik,Rubik_MSFontService,sans-serif" font-weight="700" font-size="60" transform="matrix(1 0 0 1 1787.49 1482)"> </text><text fill="#FFFFFF" font-family="Rubik,Rubik_MSFontService,sans-serif" font-weight="700" font-size="60" transform="matrix(1 0 0 1 1787.49 1554)"> </text><text fill="#FFFFFF" font-family="Rubik,Rubik_MSFontService,sans-serif" font-weight="700" font-size="60" transform="matrix(1 0 0 1 1787.49 1625)"> </text><text fill="#FFFFFF" font-family="Rubik,Rubik_MSFontService,sans-serif" font-weight="700" font-size="60" transform="matrix(1 0 0 1 1705.86 1697)">PARK</text><text fill="#FFFFFF" font-family="Rubik,Rubik_MSFontService,sans-serif" font-weight="700" font-size="60" transform="matrix(1 0 0 1 1869.14 1697)"> </text><path d="M1774.57 1408.71 1800.01 1408.71 1831.29 1483.79 1743.71 1483.79 1774.57 1408.71ZM1670.73 1367 1670.73 1408.71 1730.36 1408.71 1699.09 1483.79 1604 1483.79 1604 1508.82 1688.66 1508.82 1650.29 1601 1694.92 1601 1733.28 1508.82 1841.72 1508.82 1880.08 1601 1924.71 1601 1886.34 1508.82 1971 1508.82 1971 1483.79 1875.91 1483.79 1844.64 1408.71 1904.27 1408.71 1904.27 1367 1670.73 1367Z" fill="#F2F2F2" fill-rule="evenodd"/></g></svg>