<svg width="519" height="524" xmlns="http://www.w3.org/2000/svg" xmlns:xlink="http://www.w3.org/1999/xlink" xml:space="preserve" overflow="hidden"><g transform="translate(-1528 -718)"><text fill="#FFFFFF" font-family="Aptos,Aptos_MSFontService,sans-serif" font-weight="700" font-size="73" transform="matrix(1 0 0 1 1595.35 1178)">Street/Path</text><path d="M1725.65 915.044 1738.17 915.044 1708.04 843 1677.83 915.044 1690.35 915.044 1670 957.845 1700.21 957.845 1700.21 977 1715.87 977 1715.87 957.845 1746 957.845 1725.65 915.044 1725.65 915.044Z" fill="#F2F2F2" fill-rule="evenodd"/><path d="M1917.54 862.538 1926.44 862.538 1905.03 812 1883.56 862.538 1892.46 862.538 1878 892.566 1899.47 892.566 1899.47 906 1910.59 906 1910.59 892.566 1932 892.566 1917.54 862.538 1917.54 862.538Z" fill="#F2F2F2" fill-rule="evenodd"/><path d="M1811.18 886.106C1825.58 895.83 1864.09 914.465 1870.61 919.098 1879.73 925.573 1909.36 940.151 1886.56 979.594 1863.77 1019.04 1842.66 1048.1 1828.68 1069L1640 1069C1686.91 1030.58 1759.14 998.869 1790.36 976.4 1821.57 953.931 1823.27 936.958 1808.26 918.248 1794.53 901.117 1782.21 896.289 1777.16 885.973 1768.17 867.615 1800.63 859.845 1811.7 860.003 1813.04 860.003 1825.43 860.003 1825.43 860.003 1825.43 860.003 1796.78 876.386 1811.18 886.106Z" fill="#F2F2F2" fill-rule="evenodd"/></g></svg>