<svg width="535" height="520" xmlns="http://www.w3.org/2000/svg" xmlns:xlink="http://www.w3.org/1999/xlink" xml:space="preserve" overflow="hidden"><g transform="translate(-1526 -1757)"><text fill="#FFFFFF" font-family="Rubik,Rubik_MSFontService,sans-serif" font-weight="700" font-size="60" transform="matrix(1 0 0 1 1787.49 1859)"> </text><text fill="#FFFFFF" font-family="Rubik,Rubik_MSFontService,sans-serif" font-weight="700" font-size="60" transform="matrix(1 0 0 1 1787.49 1931)"> </text><text fill="#FFFFFF" font-family="Rubik,Rubik_MSFontService,sans-serif" font-weight="700" font-size="60" transform="matrix(1 0 0 1 1787.49 2002)"> </text><text fill="#FFFFFF" font-family="Rubik,Rubik_MSFontService,sans-serif" font-weight="700" font-size="60" transform="matrix(1 0 0 1 1787.49 2074)"> </text><text fill="#FFFFFF" font-family="Rubik,Rubik_MSFontService,sans-serif" font-weight="700" font-size="60" transform="matrix(1 0 0 1 1787.49 2145)"> </text><text fill="#FFFFFF" font-family="Rubik,Rubik_MSFontService,sans-serif" font-weight="700" font-size="60" transform="matrix(1 0 0 1 1562.63 2217)">SUPERMARKET</text><text fill="#FFFFFF" font-family="Rubik,Rubik_MSFontService,sans-serif" font-weight="700" font-size="60" transform="matrix(1 0 0 1 2012.37 2217)"> </text><g><g><g><path d="M100.427 100.427 64.7916 100.427 64.7916 77.7499 100.427 77.7499 100.427 100.427ZM149.021 77.7499 149.021 100.427 113.385 100.427 113.385 77.7499 149.021 77.7499ZM197.614 77.7499 197.614 100.427 161.979 100.427 161.979 77.7499 197.614 77.7499ZM246.208 77.7499 246.208 100.427 210.573 100.427 210.573 77.7499 246.208 77.7499ZM246.208 136.062 210.573 136.062 210.573 113.385 246.208 113.385 246.208 136.062ZM246.208 163.599 210.573 166.838 210.573 149.021 246.208 149.021 246.208 163.599ZM100.427 149.021 100.427 176.557 64.7916 179.797 64.7916 149.021 100.427 149.021ZM100.427 136.062 64.7916 136.062 64.7916 113.385 100.427 113.385 100.427 136.062ZM149.021 136.062 113.385 136.062 113.385 113.385 149.021 113.385 149.021 136.062ZM161.979 136.062 161.979 113.385 197.614 113.385 197.614 136.062 161.979 136.062ZM149.021 172.346 113.385 175.585 113.385 149.021 149.021 149.021 149.021 172.346ZM161.979 149.021 197.614 149.021 197.614 167.81 161.979 171.05 161.979 149.021ZM265.646 181.417 265.646 58.3125 64.7916 58.3125 64.7916 55.0729C64.7916 38.875 51.8333 25.9166 35.6354 25.9166 30.1281 25.9166 25.9166 30.1281 25.9166 35.6354 25.9166 41.1427 30.1281 45.3541 35.6354 45.3541 41.1427 45.3541 45.3541 49.5656 45.3541 55.0729L45.3541 217.052C45.3541 233.25 58.3125 246.208 74.5104 246.208L84.2291 246.208 226.771 246.208 255.927 246.208C261.434 246.208 265.646 241.997 265.646 236.489 265.646 230.982 261.434 226.771 255.927 226.771L74.5104 226.771C69.0031 226.771 64.7916 222.559 64.7916 217.052L64.7916 199.234 265.646 181.417Z" fill="#FFFFFF" transform="matrix(1 0 0 1.00322 1632 1809)"/><path d="M103.667 265.646C103.667 276.381 94.9641 285.083 84.2291 285.083 73.4941 285.083 64.7916 276.381 64.7916 265.646 64.7916 254.911 73.4941 246.208 84.2291 246.208 94.9641 246.208 103.667 254.911 103.667 265.646Z" fill="#FFFFFF" transform="matrix(1 0 0 1.00322 1632 1809)"/><path d="M246.208 265.646C246.208 276.381 237.506 285.083 226.771 285.083 216.036 285.083 207.333 276.381 207.333 265.646 207.333 254.911 216.036 246.208 226.771 246.208 237.506 246.208 246.208 254.911 246.208 265.646Z" fill="#FFFFFF" transform="matrix(1 0 0 1.00322 1632 1809)"/></g></g></g></g></svg>