<svg width="520" height="519" xmlns="http://www.w3.org/2000/svg" xmlns:xlink="http://www.w3.org/1999/xlink" xml:space="preserve" overflow="hidden"><g transform="translate(-748 -1238)"><text fill="#FFFFFF" font-family="Rubik,Rubik_MSFontService,sans-serif" font-weight="700" font-size="60" transform="matrix(1 0 0 1 1007.97 1339)"> </text><text fill="#FFFFFF" font-family="Rubik,Rubik_MSFontService,sans-serif" font-weight="700" font-size="60" transform="matrix(1 0 0 1 1007.97 1411)"> </text><text fill="#FFFFFF" font-family="Rubik,Rubik_MSFontService,sans-serif" font-weight="700" font-size="60" transform="matrix(1 0 0 1 1007.97 1482)"> </text><text fill="#FFFFFF" font-family="Rubik,Rubik_MSFontService,sans-serif" font-weight="700" font-size="60" transform="matrix(1 0 0 1 1007.97 1554)"> </text><text fill="#FFFFFF" font-family="Rubik,Rubik_MSFontService,sans-serif" font-weight="700" font-size="60" transform="matrix(1 0 0 1 1007.97 1625)"> </text><text fill="#FFFFFF" font-family="Rubik,Rubik_MSFontService,sans-serif" font-weight="700" font-size="60" transform="matrix(1 0 0 1 826.358 1697)">STRUCTURE</text><text fill="#FFFFFF" font-family="Rubik,Rubik_MSFontService,sans-serif" font-weight="700" font-size="60" transform="matrix(1 0 0 1 1189.59 1697)"> </text><path d="M1027.67 1580.38 986.333 1580.38 986.333 1532.94C986.333 1521.59 995.634 1512.31 1007 1512.31 1018.37 1512.31 1027.67 1521.59 1027.67 1532.94L1027.67 1580.38ZM1007 1398.19C1016.64 1398.19 1024.22 1405.75 1024.22 1415.38 1024.22 1425 1016.64 1432.56 1007 1432.56 997.356 1432.56 989.778 1425 989.778 1415.38 989.778 1405.75 997.356 1398.19 1007 1398.19ZM1056.6 1385.12 1131 1322.56 1101.38 1293 1045.58 1359 1007 1312.25 968.422 1359 912.622 1293 883 1322.56 957.4 1385.12 950.856 1452.16 883 1509.56 912.622 1539.13 946.034 1499.59 938.111 1580.38 924.333 1580.38 924.333 1601 1089.67 1601 1089.67 1580.38 1075.89 1580.38 1067.97 1499.59 1101.38 1539.13 1131 1509.56 1063.14 1452.5 1056.6 1385.12Z" fill="#F2F2F2" fill-rule="evenodd"/></g></svg>