<svg width="540" height="524" xmlns="http://www.w3.org/2000/svg" xmlns:xlink="http://www.w3.org/1999/xlink" xml:space="preserve" overflow="hidden"><g transform="translate(-998 -718)"><text fill="#FFFFFF" font-family="Aptos,Aptos_MSFontService,sans-serif" font-weight="700" font-size="73" transform="matrix(1 0 0 1 1042.5 1178)">Metr</text><text fill="#FFFFFF" font-family="Aptos,Aptos_MSFontService,sans-serif" font-weight="700" font-size="73" transform="matrix(1 0 0 1 1195.79 1178)">o</text><text fill="#FFFFFF" font-family="Aptos,Aptos_MSFontService,sans-serif" font-weight="700" font-size="73" transform="matrix(1 0 0 1 1252.51 1178)">Station</text><path d="M1125.5 1082.5 1125.5 993.813 1125.5 909.167 1125.5 872.062C1125.5 815.971 1169.18 770.5 1223.07 770.5L1268.5 770.5 1313.93 770.5C1367.82 770.5 1411.5 815.971 1411.5 872.062L1411.5 909.167 1411.5 993.813 1411.5 1082.5" stroke="#FFFFFF" stroke-width="20.625" stroke-miterlimit="8" fill="none" fill-rule="evenodd"/><path d="M1336.25 918.572C1336.25 923.066 1332.84 926.743 1328.67 926.743L1207.33 926.743C1203.16 926.743 1199.75 923.066 1199.75 918.572L1199.75 836.857C1199.75 827.869 1206.57 820.514 1214.92 820.514L1245.25 820.514C1245.25 816.02 1248.66 812.343 1252.83 812.343L1283.17 812.343C1287.34 812.343 1290.75 816.02 1290.75 820.514L1321.08 820.514C1329.42 820.514 1336.25 827.869 1336.25 836.857L1336.25 918.572ZM1324.87 1016.63C1318.43 1016.63 1313.5 1011.32 1313.5 1004.37 1313.5 997.426 1318.43 992.114 1324.87 992.114 1331.32 992.114 1336.25 997.426 1336.25 1004.37 1336.25 1011.32 1331.32 1016.63 1324.87 1016.63ZM1211.12 1016.63C1204.68 1016.63 1199.75 1011.32 1199.75 1004.37 1199.75 997.426 1204.68 992.114 1211.12 992.114 1217.57 992.114 1222.5 997.426 1222.5 1004.37 1222.5 1011.32 1217.57 1016.63 1211.12 1016.63ZM1328.67 796 1275.58 796 1260.42 796 1207.33 796C1190.65 796 1177 810.709 1177 828.686L1177 1016.63C1177 1030.11 1187.24 1041.14 1199.75 1041.14L1203.16 1041.14 1186.1 1082 1202.78 1082 1219.85 1041.14 1316.15 1041.14 1333.22 1082 1349.9 1082 1332.84 1041.14 1336.25 1041.14C1348.76 1041.14 1359 1030.11 1359 1016.63L1359 828.686C1359 810.709 1345.35 796 1328.67 796Z" fill="#FFFFFF" fill-rule="evenodd"/></g></svg>