<svg width="520" height="520" xmlns="http://www.w3.org/2000/svg" xmlns:xlink="http://www.w3.org/1999/xlink" xml:space="preserve" overflow="hidden"><g transform="translate(-1008 -1757)"><text fill="#FFFFFF" font-family="Rubik,Rubik_MSFontService,sans-serif" font-weight="700" font-size="60" transform="matrix(1 0 0 1 1267.81 1859)"> </text><text fill="#FFFFFF" font-family="Rubik,Rubik_MSFontService,sans-serif" font-weight="700" font-size="60" transform="matrix(1 0 0 1 1267.81 1931)"> </text><text fill="#FFFFFF" font-family="Rubik,Rubik_MSFontService,sans-serif" font-weight="700" font-size="60" transform="matrix(1 0 0 1 1267.81 2002)"> </text><text fill="#FFFFFF" font-family="Rubik,Rubik_MSFontService,sans-serif" font-weight="700" font-size="60" transform="matrix(1 0 0 1 1267.81 2074)"> </text><text fill="#FFFFFF" font-family="Rubik,Rubik_MSFontService,sans-serif" font-weight="700" font-size="60" transform="matrix(1 0 0 1 1267.81 2145)"> </text><text fill="#FFFFFF" font-family="Rubik,Rubik_MSFontService,sans-serif" font-weight="700" font-size="60" transform="matrix(1 0 0 1 1073.6 2217)">WATER BODY</text><text fill="#FFFFFF" font-family="Rubik,Rubik_MSFontService,sans-serif" font-weight="700" font-size="60" transform="matrix(1 0 0 1 1462.03 2217)"> </text><path d="M1408.4 1866.07C1400.99 1862.95 1393.19 1861.39 1385 1861L1385 1861C1376.81 1861.39 1369.01 1862.95 1361.6 1866.07 1356.53 1868.02 1351.46 1869.2 1346 1869.59L1346 1869.59C1340.54 1869.2 1335.47 1868.02 1330.4 1866.07 1322.99 1862.95 1315.19 1861.39 1307 1861L1307 1861C1298.81 1861.39 1291.01 1862.95 1283.6 1866.07 1278.53 1868.02 1273.46 1869.2 1268 1869.59 1262.54 1869.2 1257.47 1868.02 1252.4 1866.07 1244.99 1862.95 1237.19 1861.39 1229 1861L1229 1861C1220.81 1861.39 1213.01 1862.95 1205.6 1866.07 1200.53 1868.02 1195.46 1869.2 1190 1869.59 1184.54 1869.2 1179.47 1868.02 1174.4 1866.07 1166.99 1862.95 1159.19 1861.39 1151 1861L1151 1861C1142.81 1861.39 1135.01 1862.95 1127.6 1866.07 1122.53 1868.02 1117.46 1869.2 1112 1869.59L1112 1893C1120.19 1892.61 1127.99 1891.05 1135.4 1887.93 1140.47 1885.98 1145.54 1884.42 1151 1884.42 1156.46 1884.81 1161.53 1885.98 1166.6 1887.93 1174.01 1891.05 1181.81 1892.61 1190 1893L1190 1893C1198.19 1892.61 1205.99 1891.05 1213.4 1887.93 1218.47 1885.98 1223.54 1884.42 1229 1884.42 1234.46 1884.81 1239.53 1885.98 1244.6 1887.93 1252.01 1891.05 1259.81 1892.61 1268 1893 1276.19 1892.61 1283.99 1891.05 1291.4 1887.93 1296.47 1885.98 1301.54 1884.42 1307 1884.42 1312.46 1884.81 1317.53 1885.98 1322.6 1887.93 1330.01 1891.05 1337.81 1892.61 1346 1893L1346 1893C1354.19 1892.61 1361.99 1891.05 1369.4 1887.93 1374.47 1885.98 1379.54 1884.42 1385 1884.42 1390.46 1884.81 1395.53 1885.98 1400.6 1887.93 1408.01 1891.05 1415.81 1892.61 1424 1893L1424 1869.59C1418.54 1869.2 1413.47 1868.02 1408.4 1866.07Z" fill="#FFFFFF" fill-rule="evenodd"/><path d="M1408.4 1953.07C1400.99 1949.95 1393.19 1948.39 1385 1948L1385 1948C1376.81 1948.39 1369.01 1949.95 1361.6 1953.07 1356.53 1955.02 1351.46 1956.2 1346 1956.59L1346 1956.59C1340.54 1956.2 1335.47 1955.02 1330.4 1953.07 1322.99 1949.95 1315.19 1948.39 1307 1948L1307 1948C1298.81 1948.39 1291.01 1949.95 1283.6 1953.07 1278.53 1955.02 1273.46 1956.2 1268 1956.59 1262.54 1956.2 1257.47 1955.02 1252.4 1953.07 1244.99 1949.95 1237.19 1948.39 1229 1948L1229 1948C1220.81 1948.39 1213.01 1949.95 1205.6 1953.07 1200.53 1955.02 1195.46 1956.2 1190 1956.59 1184.54 1956.2 1179.47 1955.02 1174.4 1953.07 1166.99 1949.95 1159.19 1948.39 1151 1948L1151 1948C1142.81 1948.39 1135.01 1949.95 1127.6 1953.07 1122.53 1955.02 1117.46 1956.2 1112 1956.59L1112 1980C1120.19 1979.61 1127.99 1978.05 1135.4 1974.93 1140.47 1972.98 1145.54 1971.41 1151 1971.41 1156.46 1971.8 1161.53 1972.98 1166.6 1974.93 1174.01 1978.05 1181.81 1979.61 1190 1980L1190 1980C1198.19 1979.61 1205.99 1978.05 1213.4 1974.93 1218.47 1972.98 1223.54 1971.41 1229 1971.41 1234.46 1971.8 1239.53 1972.98 1244.6 1974.93 1252.01 1978.05 1259.81 1979.61 1268 1980 1276.19 1979.61 1283.99 1978.05 1291.4 1974.93 1296.47 1972.98 1301.54 1971.41 1307 1971.41 1312.46 1971.8 1317.53 1972.98 1322.6 1974.93 1330.01 1978.05 1337.81 1979.61 1346 1980L1346 1980C1354.19 1979.61 1361.99 1978.05 1369.4 1974.93 1374.47 1972.98 1379.54 1971.41 1385 1971.41 1390.46 1971.8 1395.53 1972.98 1400.6 1974.93 1408.01 1978.05 1415.81 1979.61 1424 1980L1424 1956.59C1418.54 1956.2 1413.47 1955.02 1408.4 1953.07Z" fill="#FFFFFF" fill-rule="evenodd"/><path d="M1408.4 2042.07C1400.99 2038.95 1393.19 2037.39 1385 2037L1385 2037C1376.81 2037.39 1369.01 2038.95 1361.6 2042.07 1356.53 2044.02 1351.46 2045.2 1346 2045.59L1346 2045.59C1340.54 2045.2 1335.47 2044.02 1330.4 2042.07 1322.99 2038.95 1315.19 2037.39 1307 2037L1307 2037C1298.81 2037.39 1291.01 2038.95 1283.6 2042.07 1278.53 2044.02 1273.46 2045.2 1268 2045.59 1262.54 2045.2 1257.47 2044.02 1252.4 2042.07 1244.99 2038.95 1237.19 2037.39 1229 2037L1229 2037C1220.81 2037.39 1213.01 2038.95 1205.6 2042.07 1200.53 2044.02 1195.46 2045.2 1190 2045.59 1184.54 2045.2 1179.47 2044.02 1174.4 2042.07 1166.99 2038.95 1159.19 2037.39 1151 2037L1151 2037C1142.81 2037.39 1135.01 2038.95 1127.6 2042.07 1122.53 2044.02 1117.46 2045.2 1112 2045.59L1112 2069C1120.19 2068.61 1127.99 2067.05 1135.4 2063.93 1140.47 2061.98 1145.54 2060.42 1151 2060.42 1156.46 2060.81 1161.53 2061.98 1166.6 2063.93 1174.01 2067.05 1181.81 2068.61 1190 2069L1190 2069C1198.19 2068.61 1205.99 2067.05 1213.4 2063.93 1218.47 2061.98 1223.54 2060.42 1229 2060.42 1234.46 2060.81 1239.53 2061.98 1244.6 2063.93 1252.01 2067.05 1259.81 2068.61 1268 2069 1276.19 2068.61 1283.99 2067.05 1291.4 2063.93 1296.47 2061.98 1301.54 2060.42 1307 2060.42 1312.46 2060.81 1317.53 2061.98 1322.6 2063.93 1330.01 2067.05 1337.81 2068.61 1346 2069L1346 2069C1354.19 2068.61 1361.99 2067.05 1369.4 2063.93 1374.47 2061.98 1379.54 2060.42 1385 2060.42 1390.46 2060.81 1395.53 2061.98 1400.6 2063.93 1408.01 2067.05 1415.81 2068.61 1424 2069L1424 2045.59C1418.54 2045.2 1413.47 2044.02 1408.4 2042.07Z" fill="#FFFFFF" fill-rule="evenodd"/></g></svg>