<svg width="520" height="520" xmlns="http://www.w3.org/2000/svg" xmlns:xlink="http://www.w3.org/1999/xlink" xml:space="preserve" overflow="hidden"><g transform="translate(-488 -718)"><text fill="#FFFFFF" font-family="Rubik,Rubik_MSFontService,sans-serif" font-weight="700" font-size="60" transform="matrix(1 0 0 1 748.118 819)"> </text><text fill="#FFFFFF" font-family="Rubik,Rubik_MSFontService,sans-serif" font-weight="700" font-size="60" transform="matrix(1 0 0 1 748.118 891)"> </text><text fill="#FFFFFF" font-family="Rubik,Rubik_MSFontService,sans-serif" font-weight="700" font-size="60" transform="matrix(1 0 0 1 748.118 962)"> </text><text fill="#FFFFFF" font-family="Rubik,Rubik_MSFontService,sans-serif" font-weight="700" font-size="60" transform="matrix(1 0 0 1 748.118 1034)"> </text><text fill="#FFFFFF" font-family="Rubik,Rubik_MSFontService,sans-serif" font-weight="700" font-size="60" transform="matrix(1 0 0 1 748.118 1105)"> </text><text fill="#FFFFFF" font-family="Rubik,Rubik_MSFontService,sans-serif" font-weight="700" font-size="60" transform="matrix(1 0 0 1 677.948 1177)">2 KM</text><text fill="#FFFFFF" font-family="Rubik,Rubik_MSFontService,sans-serif" font-weight="700" font-size="60" transform="matrix(1 0 0 1 818.312 1177)"> </text><g><g><g><path d="M156 280.475C134.875 280.475 116.35 265.525 111.8 245.05 106.925 224.25 117.325 203.125 136.5 194.025L136.5 51.025C136.5 40.3 145.275 31.525 156 31.525 166.725 31.525 175.5 40.3 175.5 51.025L175.5 194.025C194.675 203.125 204.75 224.25 200.2 245.05 195.325 265.525 177.125 280.15 156 280.475L156 280.475ZM195 182.975 195 51.025C195 29.575 177.45 12.025 156 12.025 134.55 12.025 117 29.25 117 51.025L117 182.975C94.5749 199.875 85.4749 229.125 94.2499 255.45 103.025 282.1 128.05 299.975 156 299.975 183.95 299.975 208.975 282.1 217.75 255.45 226.525 229.125 217.425 199.875 195 182.975Z" fill="#FFFFFF" transform="matrix(1 0 0 1 592 796)"/><path d="M162.5 203.125 162.5 124.475 149.5 124.475 149.5 203.125C133.25 206.375 121.875 221.65 123.825 238.225 125.45 254.8 139.425 267.475 156 267.475 172.575 267.475 186.55 254.8 188.175 238.225 190.125 221.65 178.75 206.375 162.5 203.125Z" fill="#FFFFFF" transform="matrix(1 0 0 1 592 796)"/></g></g></g></g></svg>