<svg width="520" height="524" xmlns="http://www.w3.org/2000/svg" xmlns:xlink="http://www.w3.org/1999/xlink" xml:space="preserve" overflow="hidden"><g transform="translate(-2307 -1238)"><text fill="#FFFFFF" font-family="Aptos,Aptos_MSFontService,sans-serif" font-weight="700" font-size="73" transform="matrix(1 0 0 1 2468.49 1697)">100</text><text fill="#FFFFFF" font-family="Aptos,Aptos_MSFontService,sans-serif" font-weight="700" font-size="73" transform="matrix(1 0 0 1 2600.26 1697)">m</text><path d="M73.9998 0C114.869-1.9097e-14 148 33.5786 148 74.9999 148 116.421 114.869 150 73.9998 150 33.1308 150-0.000164042 116.421-0.000164042 74.9999-0.000164042 66.7369 1.34713 58.5306 3.98727 50.7128" stroke="#FFFFFF" stroke-width="20.625" stroke-miterlimit="8" fill="none" fill-rule="evenodd" transform="matrix(-1 0 0 1 2641.5 1369.5)"/><path d="M2525 1444C2525 1420.25 2544.03 1401 2567.5 1401 2590.97 1401 2610 1420.25 2610 1444 2610 1467.75 2590.97 1487 2567.5 1487 2544.03 1487 2525 1467.75 2525 1444Z" fill="#FFFFFF" fill-rule="evenodd"/><path d="M117 0C181.617-3.00459e-14 234 52.8303 234 118 234 183.169 181.617 236 117 236 52.3826 236-1.5023e-14 183.169-1.5023e-14 118-1.5023e-14 105.97 1.82402 94.0107 5.4088 82.5368" stroke="#FFFFFF" stroke-width="20.625" stroke-miterlimit="8" fill="none" fill-rule="evenodd" transform="matrix(-1 0 0 1 2684.5 1326.5)"/><path d="M0 0 0.000360892 129.921" stroke="#FFFFFF" stroke-width="20.625" stroke-miterlimit="8" fill="none" fill-rule="evenodd" transform="matrix(1 0 0 -1 2567.5 1445.42)"/></g></svg>