<svg width="520" height="525" xmlns="http://www.w3.org/2000/svg" xmlns:xlink="http://www.w3.org/1999/xlink" xml:space="preserve" overflow="hidden"><g transform="translate(-228 -1757)"><text fill="#FFFFFF" font-family="Aptos,Aptos_MSFontService,sans-serif" font-weight="700" font-size="73" transform="matrix(1 0 0 1 283.63 2217)">Large</text><text fill="#FFFFFF" font-family="Aptos,Aptos_MSFontService,sans-serif" font-weight="700" font-size="73" transform="matrix(1 0 0 1 481.286 2217)">Bridge</text><g><g><g><path d="M607.925 2044.82C601.537 2042.35 594.783 2040.95 587.937 2040.69 581.092 2040.95 574.337 2042.35 567.95 2044.82 563.696 2046.53 559.199 2047.56 554.625 2047.88L554.625 2047.88C550.051 2047.56 545.554 2046.53 541.3 2044.82 534.912 2042.35 528.158 2040.95 521.312 2040.69 514.467 2040.95 507.712 2042.35 501.325 2044.82 497.071 2046.53 492.574 2047.56 488 2047.88 483.426 2047.56 478.929 2046.53 474.675 2044.82 468.287 2042.35 461.533 2040.95 454.687 2040.69 447.842 2040.95 441.088 2042.35 434.7 2044.82 430.446 2046.53 425.949 2047.56 421.375 2047.88 416.801 2047.56 412.304 2046.53 408.05 2044.82 401.662 2042.35 394.908 2040.95 388.063 2040.69 381.217 2040.95 374.463 2042.35 368.075 2044.82 363.821 2046.53 359.325 2047.56 354.75 2047.88L354.75 2067.38C361.595 2067.12 368.35 2065.72 374.738 2063.25 378.981 2061.47 383.478 2060.37 388.063 2060 392.647 2060.37 397.144 2061.47 401.388 2063.25 407.775 2065.72 414.53 2067.12 421.375 2067.38 428.22 2067.12 434.975 2065.72 441.362 2063.25 445.606 2061.47 450.103 2060.37 454.687 2060 459.262 2060.31 463.759 2061.34 468.012 2063.05 474.384 2065.61 481.141 2067.07 488 2067.38 494.845 2067.12 501.6 2065.72 507.987 2063.25 512.231 2061.47 516.728 2060.37 521.312 2060 525.897 2060.37 530.394 2061.47 534.637 2063.25 541.025 2065.72 547.779 2067.12 554.625 2067.38 561.47 2067.12 568.225 2065.72 574.612 2063.25 578.856 2061.47 583.353 2060.37 587.937 2060 592.512 2060.31 597.008 2061.34 601.262 2063.05 607.634 2065.61 614.391 2067.07 621.25 2067.38L621.25 2047.88C616.675 2047.56 612.179 2046.53 607.925 2044.82Z" fill="#FFFFFF"/><path d="M607.925 2083.82C601.537 2081.34 594.783 2079.95 587.937 2079.69 581.092 2079.95 574.337 2081.34 567.95 2083.82 563.696 2085.53 559.199 2086.56 554.625 2086.88L554.625 2086.88C550.051 2086.56 545.554 2085.53 541.3 2083.82 534.912 2081.34 528.158 2079.95 521.312 2079.69 514.467 2079.95 507.712 2081.34 501.325 2083.82 497.071 2085.53 492.574 2086.56 488 2086.88 483.426 2086.56 478.929 2085.53 474.675 2083.82 468.287 2081.34 461.533 2079.95 454.687 2079.69 447.842 2079.95 441.088 2081.34 434.7 2083.82 430.446 2085.53 425.949 2086.56 421.375 2086.88 416.801 2086.56 412.304 2085.53 408.05 2083.82 401.662 2081.34 394.908 2079.95 388.063 2079.69 381.217 2079.95 374.463 2081.34 368.075 2083.82 363.821 2085.53 359.325 2086.56 354.75 2086.88L354.75 2106.38C361.595 2106.12 368.35 2104.72 374.738 2102.25 378.981 2100.47 383.478 2099.37 388.063 2099 392.647 2099.37 397.144 2100.47 401.388 2102.25 407.775 2104.72 414.53 2106.12 421.375 2106.38 428.22 2106.12 434.975 2104.72 441.362 2102.25 445.606 2100.47 450.103 2099.37 454.687 2099 459.262 2099.31 463.759 2100.34 468.012 2102.05 474.384 2104.61 481.141 2106.07 488 2106.38 494.845 2106.12 501.6 2104.72 507.987 2102.25 512.231 2100.47 516.728 2099.37 521.312 2099 525.897 2099.37 530.394 2100.47 534.637 2102.25 541.025 2104.72 547.779 2106.12 554.625 2106.38 561.47 2106.12 568.225 2104.72 574.612 2102.25 578.856 2100.47 583.353 2099.37 587.937 2099 592.512 2099.31 597.008 2100.34 601.262 2102.05 607.634 2104.61 614.391 2106.07 621.25 2106.38L621.25 2086.88C616.675 2086.56 612.179 2085.53 607.925 2083.82Z" fill="#FFFFFF"/><path d="M621.25 1936.56 621.25 1923.56C589.042 1923.56 559.695 1900.1 559.5 1874.26L559.5 1874 546.5 1874 546.5 1874.26C546.305 1899.22 514 1923.43 488 1923.43 462 1923.43 429.695 1899.22 429.5 1874.26L429.5 1874 416.5 1874 416.5 1874.26C416.305 1900.26 386.958 1923.56 354.75 1923.56L354.75 1936.56C358.009 1936.55 361.265 1936.35 364.5 1935.95L364.5 1961.75 354.75 1961.75 354.75 1987.75 413.25 1987.75 413.25 2026.36C416.165 2027.21 419.16 2027.75 422.188 2027.98 425.783 2027.72 429.331 2027.01 432.75 2025.87L432.75 1987.75 543.25 1987.75 543.25 2026.75C546.162 2027.61 549.158 2028.16 552.187 2028.38 555.783 2028.11 559.331 2027.4 562.75 2026.26L562.75 1987.75 621.25 1987.75 621.25 1961.75 611.5 1961.75 611.5 1935.95C614.735 1936.35 617.99 1936.55 621.25 1936.56ZM390.5 1961.75 377.5 1961.75 377.5 1933.31C381.964 1932.03 386.312 1930.38 390.5 1928.37ZM413.25 1961.75 403.5 1961.75 403.5 1920.54C406.994 1917.95 410.256 1915.05 413.25 1911.9ZM442.5 1961.75 432.75 1961.75 432.75 1911.9C435.746 1915.04 439.008 1917.92 442.5 1920.51ZM520.5 1928.34 520.5 1961.75 507.5 1961.75 507.5 1933.28C511.964 1932 516.312 1930.35 520.5 1928.34ZM494.5 1935.91 494.5 1961.91 481.5 1961.91 481.5 1935.91C483.645 1936.17 485.822 1936.37 488 1936.47 490.177 1936.56 492.355 1936.17 494.5 1935.91ZM455.5 1928.34C459.689 1930.34 464.037 1931.98 468.5 1933.25L468.5 1961.75 455.5 1961.75ZM533.5 1961.75 533.5 1920.51C536.992 1917.92 540.254 1915.04 543.25 1911.9L543.25 1961.75ZM562.75 1911.9C565.744 1915.05 569.006 1917.95 572.5 1920.54L572.5 1961.75 562.75 1961.75ZM598.5 1961.75 585.5 1961.75 585.5 1928.37C589.688 1930.38 594.036 1932.03 598.5 1933.31Z" fill="#FFFFFF"/></g></g></g></g></svg>