<svg width="527" height="524" xmlns="http://www.w3.org/2000/svg" xmlns:xlink="http://www.w3.org/1999/xlink" xml:space="preserve" overflow="hidden"><g transform="translate(-225 -1238)"><text fill="#FFFFFF" font-family="Aptos,Aptos_MSFontService,sans-serif" font-weight="700" font-size="73" transform="matrix(1 0 0 1 269.147 1697)">High Building</text><path d="M514 1362.67 496.667 1362.67 496.667 1345.33 514 1345.33 514 1362.67ZM514 1393 496.667 1393 496.667 1375.67 514 1375.67 514 1393ZM514 1427.67 496.667 1427.67 496.667 1410.33 514 1410.33 514 1427.67ZM514 1462.33 496.667 1462.33 496.667 1445 514 1445 514 1462.33ZM514 1497 496.667 1497 496.667 1479.67 514 1479.67 514 1497ZM514 1531.67 496.667 1531.67 496.667 1514.33 514 1514.33 514 1531.67ZM479.333 1362.67 462 1362.67 462 1345.33 479.333 1345.33 479.333 1362.67ZM479.333 1393 462 1393 462 1375.67 479.333 1375.67 479.333 1393ZM479.333 1427.67 462 1427.67 462 1410.33 479.333 1410.33 479.333 1427.67ZM479.333 1462.33 462 1462.33 462 1445 479.333 1445 479.333 1462.33ZM479.333 1497 462 1497 462 1479.67 479.333 1479.67 479.333 1497ZM479.333 1531.67 462 1531.67 462 1514.33 479.333 1514.33 479.333 1531.67ZM436 1315 436 1575 479.333 1575 479.333 1549 496.667 1549 496.667 1575 540 1575 540 1328 436 1315Z" fill="#FFFFFF" fill-rule="evenodd"/></g></svg>