<svg width="520" height="520" xmlns="http://www.w3.org/2000/svg" xmlns:xlink="http://www.w3.org/1999/xlink" xml:space="preserve" overflow="hidden"><g transform="translate(-2567 -718)"><text fill="#FFFFFF" font-family="Rubik,Rubik_MSFontService,sans-serif" font-weight="700" font-size="60" transform="matrix(1 0 0 1 2826.87 819)"> </text><text fill="#FFFFFF" font-family="Rubik,Rubik_MSFontService,sans-serif" font-weight="700" font-size="60" transform="matrix(1 0 0 1 2826.87 891)"> </text><text fill="#FFFFFF" font-family="Rubik,Rubik_MSFontService,sans-serif" font-weight="700" font-size="60" transform="matrix(1 0 0 1 2826.87 962)"> </text><text fill="#FFFFFF" font-family="Rubik,Rubik_MSFontService,sans-serif" font-weight="700" font-size="60" transform="matrix(1 0 0 1 2826.87 1034)"> </text><text fill="#FFFFFF" font-family="Rubik,Rubik_MSFontService,sans-serif" font-weight="700" font-size="60" transform="matrix(1 0 0 1 2826.87 1105)"> </text><text fill="#FFFFFF" font-family="Rubik,Rubik_MSFontService,sans-serif" font-weight="700" font-size="60" transform="matrix(1 0 0 1 2709.99 1177)">CINEMA</text><text fill="#FFFFFF" font-family="Rubik,Rubik_MSFontService,sans-serif" font-weight="700" font-size="60" transform="matrix(1 0 0 1 2943.74 1177)"> </text><g><g><g><path d="M2758.75 874C2758.75 877.59 2755.84 880.5 2752.25 880.5 2748.66 880.5 2745.75 877.59 2745.75 874 2745.75 870.41 2748.66 867.5 2752.25 867.5 2755.84 867.5 2758.75 870.41 2758.75 874Z" fill="#FFFFFF"/><path d="M2758.75 900C2758.75 903.59 2755.84 906.5 2752.25 906.5 2748.66 906.5 2745.75 903.59 2745.75 900 2745.75 896.41 2748.66 893.5 2752.25 893.5 2755.84 893.5 2758.75 896.41 2758.75 900Z" fill="#FFFFFF"/><path d="M2745.75 887C2745.75 890.59 2742.84 893.5 2739.25 893.5 2735.66 893.5 2732.75 890.59 2732.75 887 2732.75 883.41 2735.66 880.5 2739.25 880.5 2742.84 880.5 2745.75 883.41 2745.75 887Z" fill="#FFFFFF"/><path d="M2771.75 887C2771.75 890.59 2768.84 893.5 2765.25 893.5 2761.66 893.5 2758.75 890.59 2758.75 887 2758.75 883.41 2761.66 880.5 2765.25 880.5 2768.84 880.5 2771.75 883.41 2771.75 887Z" fill="#FFFFFF"/><path d="M2849.75 861C2849.75 864.59 2846.84 867.5 2843.25 867.5 2839.66 867.5 2836.75 864.59 2836.75 861 2836.75 857.41 2839.66 854.5 2843.25 854.5 2846.84 854.5 2849.75 857.41 2849.75 861Z" fill="#FFFFFF"/><path d="M2849.75 887C2849.75 890.59 2846.84 893.5 2843.25 893.5 2839.66 893.5 2836.75 890.59 2836.75 887 2836.75 883.41 2839.66 880.5 2843.25 880.5 2846.84 880.5 2849.75 883.41 2849.75 887Z" fill="#FFFFFF"/><path d="M2836.75 874C2836.75 877.59 2833.84 880.5 2830.25 880.5 2826.66 880.5 2823.75 877.59 2823.75 874 2823.75 870.41 2826.66 867.5 2830.25 867.5 2833.84 867.5 2836.75 870.41 2836.75 874Z" fill="#FFFFFF"/><path d="M2862.75 874C2862.75 877.59 2859.84 880.5 2856.25 880.5 2852.66 880.5 2849.75 877.59 2849.75 874 2849.75 870.41 2852.66 867.5 2856.25 867.5 2859.84 867.5 2862.75 870.41 2862.75 874Z" fill="#FFFFFF"/><path d="M2937.5 916.25 2918 935.75 2892 935.75 2892 1007.25 2918 1007.25 2937.5 1026.75 2957 1026.75 2957 916.25Z" fill="#FFFFFF"/><path d="M2843.25 903.25C2827 903.25 2814 890.25 2814 874 2814 857.75 2827 844.75 2843.25 844.75 2859.5 844.75 2872.5 857.75 2872.5 874 2872.5 890.25 2859.5 903.25 2843.25 903.25ZM2853 1007.25C2849.43 1007.25 2846.5 1004.33 2846.5 1000.75 2846.5 997.175 2849.43 994.25 2853 994.25 2856.58 994.25 2859.5 997.175 2859.5 1000.75 2859.5 1004.33 2856.58 1007.25 2853 1007.25ZM2791.25 916.25C2795.48 910.4 2798.73 903.9 2800.03 896.425 2804.25 904.55 2811.07 911.375 2818.88 916.25L2791.25 916.25ZM2752.25 916.25C2736 916.25 2723 903.25 2723 887 2723 870.75 2736 857.75 2752.25 857.75 2768.5 857.75 2781.5 870.75 2781.5 887 2781.5 903.25 2768.5 916.25 2752.25 916.25ZM2867.3 916.25C2881.93 907.8 2892 892.2 2892 874 2892 847.025 2870.23 825.25 2843.25 825.25 2819.53 825.25 2800.03 842.15 2795.48 864.575 2787.35 848.975 2771.1 838.25 2752.25 838.25 2725.28 838.25 2703.5 860.025 2703.5 887 2703.5 902.925 2711.3 916.9 2723 926L2723 935.75 2716.5 935.75 2710 929.25 2697 929.25 2697 961.75 2710 961.75 2716.5 955.25 2723 955.25 2723 1013.75C2723 1020.9 2728.85 1026.75 2736 1026.75L2866 1026.75C2873.15 1026.75 2879 1020.9 2879 1013.75L2879 929.25C2879 922.425 2873.8 916.9 2867.3 916.25Z" fill="#FFFFFF"/></g></g></g></g></svg>