<svg width="524" height="524" xmlns="http://www.w3.org/2000/svg" xmlns:xlink="http://www.w3.org/1999/xlink" xml:space="preserve" overflow="hidden"><g transform="translate(-2565 -718)"><text fill="#FFFFFF" font-family="Aptos,Aptos_MSFontService,sans-serif" font-weight="700" font-size="73" transform="matrix(1 0 0 1 2609.67 1178)">Supermarket</text><g><g><g><path d="M2771.75 870.75 2736 870.75 2736 848 2771.75 848 2771.75 870.75ZM2820.5 848 2820.5 870.75 2784.75 870.75 2784.75 848 2820.5 848ZM2869.25 848 2869.25 870.75 2833.5 870.75 2833.5 848 2869.25 848ZM2918 848 2918 870.75 2882.25 870.75 2882.25 848 2918 848ZM2918 906.5 2882.25 906.5 2882.25 883.75 2918 883.75 2918 906.5ZM2918 934.125 2882.25 937.375 2882.25 919.5 2918 919.5 2918 934.125ZM2771.75 919.5 2771.75 947.125 2736 950.375 2736 919.5 2771.75 919.5ZM2771.75 906.5 2736 906.5 2736 883.75 2771.75 883.75 2771.75 906.5ZM2820.5 906.5 2784.75 906.5 2784.75 883.75 2820.5 883.75 2820.5 906.5ZM2833.5 906.5 2833.5 883.75 2869.25 883.75 2869.25 906.5 2833.5 906.5ZM2820.5 942.9 2784.75 946.15 2784.75 919.5 2820.5 919.5 2820.5 942.9ZM2833.5 919.5 2869.25 919.5 2869.25 938.35 2833.5 941.6 2833.5 919.5ZM2937.5 952 2937.5 828.5 2736 828.5 2736 825.25C2736 809 2723 796 2706.75 796 2701.23 796 2697 800.225 2697 805.75 2697 811.275 2701.23 815.5 2706.75 815.5 2712.27 815.5 2716.5 819.725 2716.5 825.25L2716.5 987.75C2716.5 1004 2729.5 1017 2745.75 1017L2755.5 1017 2898.5 1017 2927.75 1017C2933.28 1017 2937.5 1012.78 2937.5 1007.25 2937.5 1001.73 2933.28 997.5 2927.75 997.5L2745.75 997.5C2740.23 997.5 2736 993.275 2736 987.75L2736 969.875 2937.5 952Z" fill="#FFFFFF"/><path d="M2775 1036.5C2775 1047.27 2766.27 1056 2755.5 1056 2744.73 1056 2736 1047.27 2736 1036.5 2736 1025.73 2744.73 1017 2755.5 1017 2766.27 1017 2775 1025.73 2775 1036.5Z" fill="#FFFFFF"/><path d="M2918 1036.5C2918 1047.27 2909.27 1056 2898.5 1056 2887.73 1056 2879 1047.27 2879 1036.5 2879 1025.73 2887.73 1017 2898.5 1017 2909.27 1017 2918 1025.73 2918 1036.5Z" fill="#FFFFFF"/></g></g></g></g></svg>