<svg width="520" height="520" xmlns="http://www.w3.org/2000/svg" xmlns:xlink="http://www.w3.org/1999/xlink" xml:space="preserve" overflow="hidden"><g transform="translate(-1008 -718)"><text fill="#FFFFFF" font-family="Rubik,Rubik_MSFontService,sans-serif" font-weight="700" font-size="60" transform="matrix(1 0 0 1 1267.8 819)"> </text><text fill="#FFFFFF" font-family="Rubik,Rubik_MSFontService,sans-serif" font-weight="700" font-size="60" transform="matrix(1 0 0 1 1267.8 891)"> </text><text fill="#FFFFFF" font-family="Rubik,Rubik_MSFontService,sans-serif" font-weight="700" font-size="60" transform="matrix(1 0 0 1 1267.8 962)"> </text><text fill="#FFFFFF" font-family="Rubik,Rubik_MSFontService,sans-serif" font-weight="700" font-size="60" transform="matrix(1 0 0 1 1267.8 1034)"> </text><text fill="#FFFFFF" font-family="Rubik,Rubik_MSFontService,sans-serif" font-weight="700" font-size="60" transform="matrix(1 0 0 1 1267.8 1105)"> </text><text fill="#FFFFFF" font-family="Rubik,Rubik_MSFontService,sans-serif" font-weight="700" font-size="60" transform="matrix(1 0 0 1 1108.26 1177)">TRAM LINE</text><text fill="#FFFFFF" font-family="Rubik,Rubik_MSFontService,sans-serif" font-weight="700" font-size="60" transform="matrix(1 0 0 1 1427.37 1177)"> </text><path d="M1336.25 932.5C1336.25 936.969 1332.84 940.625 1328.67 940.625L1207.33 940.625C1203.16 940.625 1199.75 936.969 1199.75 932.5L1199.75 851.25C1199.75 842.312 1206.57 835 1214.92 835L1245.25 835C1245.25 830.531 1248.66 826.875 1252.83 826.875L1283.17 826.875C1287.34 826.875 1290.75 830.531 1290.75 835L1321.08 835C1329.42 835 1336.25 842.312 1336.25 851.25L1336.25 932.5ZM1324.87 1030C1318.43 1030 1313.5 1024.72 1313.5 1017.81 1313.5 1010.91 1318.43 1005.62 1324.87 1005.62 1331.32 1005.62 1336.25 1010.91 1336.25 1017.81 1336.25 1024.72 1331.32 1030 1324.87 1030ZM1211.12 1030C1204.68 1030 1199.75 1024.72 1199.75 1017.81 1199.75 1010.91 1204.68 1005.62 1211.12 1005.62 1217.57 1005.62 1222.5 1010.91 1222.5 1017.81 1222.5 1024.72 1217.57 1030 1211.12 1030ZM1328.67 810.625 1275.58 810.625 1275.58 786.25 1313.5 786.25 1313.5 770 1222.5 770 1222.5 786.25 1260.42 786.25 1260.42 810.625 1207.33 810.625C1190.65 810.625 1177 825.25 1177 843.125L1177 1030C1177 1043.41 1187.24 1054.37 1199.75 1054.37L1203.16 1054.37 1186.1 1095 1202.78 1095 1219.85 1054.37 1316.15 1054.37 1333.22 1095 1349.9 1095 1332.84 1054.37 1336.25 1054.37C1348.76 1054.37 1359 1043.41 1359 1030L1359 843.125C1359 825.25 1345.35 810.625 1328.67 810.625Z" fill="#FFFFFF" fill-rule="evenodd"/></g></svg>