<svg width="520" height="519" xmlns="http://www.w3.org/2000/svg" xmlns:xlink="http://www.w3.org/1999/xlink" xml:space="preserve" overflow="hidden"><g transform="translate(-2047 -1238)"><text fill="#FFFFFF" font-family="Rubik,Rubik_MSFontService,sans-serif" font-weight="700" font-size="60" transform="matrix(1 0 0 1 2307.17 1339)"> </text><text fill="#FFFFFF" font-family="Rubik,Rubik_MSFontService,sans-serif" font-weight="700" font-size="60" transform="matrix(1 0 0 1 2307.17 1411)"> </text><text fill="#FFFFFF" font-family="Rubik,Rubik_MSFontService,sans-serif" font-weight="700" font-size="60" transform="matrix(1 0 0 1 2307.17 1482)"> </text><text fill="#FFFFFF" font-family="Rubik,Rubik_MSFontService,sans-serif" font-weight="700" font-size="60" transform="matrix(1 0 0 1 2307.17 1554)"> </text><text fill="#FFFFFF" font-family="Rubik,Rubik_MSFontService,sans-serif" font-weight="700" font-size="60" transform="matrix(1 0 0 1 2307.17 1625)"> </text><text fill="#FFFFFF" font-family="Rubik,Rubik_MSFontService,sans-serif" font-weight="700" font-size="60" transform="matrix(1 0 0 1 2184.29 1697)">SCHOOL</text><text fill="#FFFFFF" font-family="Rubik,Rubik_MSFontService,sans-serif" font-weight="700" font-size="60" transform="matrix(1 0 0 1 2430.08 1697)"> </text><g><g><g><path d="M2307 1345.66 2361.6 1400.64 2372.22 1390.02 2307 1327.46 2240.27 1391.16 2250.88 1401.77Z" fill="#FFFFFF"/><path d="M2428.33 1482.54 2398 1482.54 2398 1452.2 2428.33 1452.2 2428.33 1482.54ZM2428.33 1528.04 2398 1528.04 2398 1497.7 2428.33 1497.7 2428.33 1528.04ZM2382.83 1482.54 2352.5 1482.54 2352.5 1452.2 2382.83 1452.2 2382.83 1482.54ZM2382.83 1528.04 2352.5 1528.04 2352.5 1497.7 2382.83 1497.7 2382.83 1528.04ZM2333.54 1482.54 2280.46 1482.54 2280.46 1467.37 2333.54 1467.37 2333.54 1482.54ZM2307 1410.5C2313.45 1410.5 2318.38 1415.42 2318.38 1421.87 2318.38 1428.32 2313.45 1433.25 2307 1433.25 2300.55 1433.25 2295.62 1428.32 2295.62 1421.87 2295.62 1415.42 2300.55 1410.5 2307 1410.5ZM2261.5 1482.54 2231.17 1482.54 2231.17 1452.2 2261.5 1452.2 2261.5 1482.54ZM2261.5 1528.04 2231.17 1528.04 2231.17 1497.7 2261.5 1497.7 2261.5 1528.04ZM2216 1482.54 2185.67 1482.54 2185.67 1452.2 2216 1452.2 2216 1482.54ZM2216 1528.04 2185.67 1528.04 2185.67 1497.7 2216 1497.7 2216 1528.04ZM2352.5 1433.25 2352.5 1410.5 2307 1365 2261.5 1410.5 2261.5 1433.25 2170.5 1433.25 2170.5 1562.16 2280.46 1562.16 2280.46 1520.45C2280.46 1509.84 2288.04 1497.7 2307 1497.7 2325.96 1497.7 2333.54 1509.84 2333.54 1520.45L2333.54 1562.16 2443.5 1562.16 2443.5 1433.25 2352.5 1433.25Z" fill="#FFFFFF"/></g></g></g></g></svg>