<svg width="520" height="519" xmlns="http://www.w3.org/2000/svg" xmlns:xlink="http://www.w3.org/1999/xlink" xml:space="preserve" overflow="hidden"><g transform="translate(-488 -1238)"><text fill="#FFFFFF" font-family="Rubik,Rubik_MSFontService,sans-serif" font-weight="700" font-size="60" transform="matrix(1 0 0 1 748.118 1339)"> </text><text fill="#FFFFFF" font-family="Rubik,Rubik_MSFontService,sans-serif" font-weight="700" font-size="60" transform="matrix(1 0 0 1 748.118 1411)"> </text><text fill="#FFFFFF" font-family="Rubik,Rubik_MSFontService,sans-serif" font-weight="700" font-size="60" transform="matrix(1 0 0 1 748.118 1482)"> </text><text fill="#FFFFFF" font-family="Rubik,Rubik_MSFontService,sans-serif" font-weight="700" font-size="60" transform="matrix(1 0 0 1 748.118 1554)"> </text><text fill="#FFFFFF" font-family="Rubik,Rubik_MSFontService,sans-serif" font-weight="700" font-size="60" transform="matrix(1 0 0 1 748.118 1625)"> </text><text fill="#FFFFFF" font-family="Rubik,Rubik_MSFontService,sans-serif" font-weight="700" font-size="60" transform="matrix(1 0 0 1 682.531 1697)">1 KM</text><text fill="#FFFFFF" font-family="Rubik,Rubik_MSFontService,sans-serif" font-weight="700" font-size="60" transform="matrix(1 0 0 1 813.729 1697)"> </text><g><g><g><path d="M748 1595.47C726.875 1595.47 708.35 1580.53 703.8 1560.05 698.925 1539.25 709.325 1518.12 728.5 1509.02L728.5 1366.02C728.5 1355.3 737.275 1346.52 748 1346.52 758.725 1346.52 767.5 1355.3 767.5 1366.02L767.5 1509.02C786.675 1518.12 796.75 1539.25 792.2 1560.05 787.325 1580.53 769.125 1595.15 748 1595.47L748 1595.47ZM787 1497.97 787 1366.02C787 1344.57 769.45 1327.02 748 1327.02 726.55 1327.02 709 1344.25 709 1366.02L709 1497.97C686.575 1514.88 677.475 1544.12 686.25 1570.45 695.025 1597.1 720.05 1614.97 748 1614.97 775.95 1614.97 800.975 1597.1 809.75 1570.45 818.525 1544.12 809.425 1514.88 787 1497.97Z" fill="#FFFFFF"/><path d="M754.5 1518.12 754.5 1439.47 741.5 1439.47 741.5 1518.12C725.25 1521.38 713.875 1536.65 715.825 1553.22 717.45 1569.8 731.425 1582.47 748 1582.47 764.575 1582.47 778.55 1569.8 780.175 1553.22 782.125 1536.65 770.75 1521.38 754.5 1518.12Z" fill="#FFFFFF"/></g></g></g></g></svg>