<svg width="520" height="524" xmlns="http://www.w3.org/2000/svg" xmlns:xlink="http://www.w3.org/1999/xlink" xml:space="preserve" overflow="hidden"><g transform="translate(-488 -1238)"><text fill="#FFFFFF" font-family="Aptos,Aptos_MSFontService,sans-serif" font-weight="700" font-size="73" transform="matrix(1 0 0 1 558.174 1697)">Water Body</text><path d="M888.4 1346.23C880.99 1343.01 873.19 1341.4 865 1341L865 1341C856.81 1341.4 849.01 1343.01 841.6 1346.23 836.53 1348.24 831.46 1349.45 826 1349.85L826 1349.85C820.54 1349.45 815.47 1348.24 810.4 1346.23 802.99 1343.01 795.19 1341.4 787 1341L787 1341C778.81 1341.4 771.01 1343.01 763.6 1346.23 758.53 1348.24 753.46 1349.45 748 1349.85 742.54 1349.45 737.47 1348.24 732.4 1346.23 724.99 1343.01 717.19 1341.4 709 1341L709 1341C700.81 1341.4 693.01 1343.01 685.6 1346.23 680.53 1348.24 675.46 1349.45 670 1349.85 664.54 1349.45 659.47 1348.24 654.4 1346.23 646.99 1343.01 639.19 1341.4 631 1341L631 1341C622.81 1341.4 615.01 1343.01 607.6 1346.23 602.53 1348.24 597.46 1349.45 592 1349.85L592 1374C600.19 1373.6 607.99 1371.99 615.4 1368.77 620.47 1366.76 625.54 1365.15 631 1365.15 636.46 1365.55 641.53 1366.76 646.6 1368.77 654.01 1371.99 661.81 1373.6 670 1374L670 1374C678.19 1373.6 685.99 1371.99 693.4 1368.77 698.47 1366.76 703.54 1365.15 709 1365.15 714.46 1365.55 719.53 1366.76 724.6 1368.77 732.01 1371.99 739.81 1373.6 748 1374 756.19 1373.6 763.99 1371.99 771.4 1368.77 776.47 1366.76 781.54 1365.15 787 1365.15 792.46 1365.55 797.53 1366.76 802.6 1368.77 810.01 1371.99 817.81 1373.6 826 1374L826 1374C834.19 1373.6 841.99 1371.99 849.4 1368.77 854.47 1366.76 859.54 1365.15 865 1365.15 870.46 1365.55 875.53 1366.76 880.6 1368.77 888.01 1371.99 895.81 1373.6 904 1374L904 1349.85C898.54 1349.45 893.47 1348.24 888.4 1346.23Z" fill="#FFFFFF" fill-rule="evenodd"/><path d="M888.4 1433.07C880.99 1429.95 873.19 1428.39 865 1428L865 1428C856.81 1428.39 849.01 1429.95 841.6 1433.07 836.53 1435.02 831.46 1436.19 826 1436.59L826 1436.59C820.54 1436.19 815.47 1435.02 810.4 1433.07 802.99 1429.95 795.19 1428.39 787 1428L787 1428C778.81 1428.39 771.01 1429.95 763.6 1433.07 758.53 1435.02 753.46 1436.19 748 1436.59 742.54 1436.19 737.47 1435.02 732.4 1433.07 724.99 1429.95 717.19 1428.39 709 1428L709 1428C700.81 1428.39 693.01 1429.95 685.6 1433.07 680.53 1435.02 675.46 1436.19 670 1436.59 664.54 1436.19 659.47 1435.02 654.4 1433.07 646.99 1429.95 639.19 1428.39 631 1428L631 1428C622.81 1428.39 615.01 1429.95 607.6 1433.07 602.53 1435.02 597.46 1436.19 592 1436.59L592 1460C600.19 1459.61 607.99 1458.05 615.4 1454.93 620.47 1452.98 625.54 1451.41 631 1451.41 636.46 1451.8 641.53 1452.98 646.6 1454.93 654.01 1458.05 661.81 1459.61 670 1460L670 1460C678.19 1459.61 685.99 1458.05 693.4 1454.93 698.47 1452.98 703.54 1451.41 709 1451.41 714.46 1451.8 719.53 1452.98 724.6 1454.93 732.01 1458.05 739.81 1459.61 748 1460 756.19 1459.61 763.99 1458.05 771.4 1454.93 776.47 1452.98 781.54 1451.41 787 1451.41 792.46 1451.8 797.53 1452.98 802.6 1454.93 810.01 1458.05 817.81 1459.61 826 1460L826 1460C834.19 1459.61 841.99 1458.05 849.4 1454.93 854.47 1452.98 859.54 1451.41 865 1451.41 870.46 1451.8 875.53 1452.98 880.6 1454.93 888.01 1458.05 895.81 1459.61 904 1460L904 1436.59C898.54 1436.19 893.47 1435.02 888.4 1433.07Z" fill="#FFFFFF" fill-rule="evenodd"/><path d="M888.4 1522.07C880.99 1518.95 873.19 1517.39 865 1517L865 1517C856.81 1517.39 849.01 1518.95 841.6 1522.07 836.53 1524.02 831.46 1525.2 826 1525.59L826 1525.59C820.54 1525.2 815.47 1524.02 810.4 1522.07 802.99 1518.95 795.19 1517.39 787 1517L787 1517C778.81 1517.39 771.01 1518.95 763.6 1522.07 758.53 1524.02 753.46 1525.2 748 1525.59 742.54 1525.2 737.47 1524.02 732.4 1522.07 724.99 1518.95 717.19 1517.39 709 1517L709 1517C700.81 1517.39 693.01 1518.95 685.6 1522.07 680.53 1524.02 675.46 1525.2 670 1525.59 664.54 1525.2 659.47 1524.02 654.4 1522.07 646.99 1518.95 639.19 1517.39 631 1517L631 1517C622.81 1517.39 615.01 1518.95 607.6 1522.07 602.53 1524.02 597.46 1525.2 592 1525.59L592 1549C600.19 1548.61 607.99 1547.05 615.4 1543.93 620.47 1541.98 625.54 1540.41 631 1540.41 636.46 1540.8 641.53 1541.98 646.6 1543.93 654.01 1547.05 661.81 1548.61 670 1549L670 1549C678.19 1548.61 685.99 1547.05 693.4 1543.93 698.47 1541.98 703.54 1540.41 709 1540.41 714.46 1540.8 719.53 1541.98 724.6 1543.93 732.01 1547.05 739.81 1548.61 748 1549 756.19 1548.61 763.99 1547.05 771.4 1543.93 776.47 1541.98 781.54 1540.41 787 1540.41 792.46 1540.8 797.53 1541.98 802.6 1543.93 810.01 1547.05 817.81 1548.61 826 1549L826 1549C834.19 1548.61 841.99 1547.05 849.4 1543.93 854.47 1541.98 859.54 1540.41 865 1540.41 870.46 1540.8 875.53 1541.98 880.6 1543.93 888.01 1547.05 895.81 1548.61 904 1549L904 1525.59C898.54 1525.2 893.47 1524.02 888.4 1522.07Z" fill="#FFFFFF" fill-rule="evenodd"/></g></svg>