<svg width="520" height="525" xmlns="http://www.w3.org/2000/svg" xmlns:xlink="http://www.w3.org/1999/xlink" xml:space="preserve" overflow="hidden"><g transform="translate(-748 -1757)"><text fill="#FFFFFF" font-family="Aptos,Aptos_MSFontService,sans-serif" font-weight="700" font-size="73" transform="matrix(1 0 0 1 922.321 2217)">Sho</text><text fill="#FFFFFF" font-family="Aptos,Aptos_MSFontService,sans-serif" font-weight="700" font-size="73" transform="matrix(1 0 0 1 1050.65 2217)">p</text><path d="M1110.44 1951.24C1110.44 1958.81 1104.24 1965 1096.67 1965 1089.09 1965 1082.89 1958.81 1082.89 1951.24L1082.89 1937.47 1076 1868.65 1103.56 1868.65 1110.44 1937.47 1110.44 1951.24ZM1055.33 1951.24C1055.33 1958.81 1049.13 1965 1041.56 1965 1033.98 1965 1027.78 1958.81 1027.78 1951.24L1027.78 1937.47 1024.33 1868.65 1051.89 1868.65 1055.33 1937.47 1055.33 1951.24ZM1000.22 1937.47 1000.22 1951.24C1000.22 1958.81 994.022 1965 986.444 1965 978.867 1965 972.667 1958.81 972.667 1951.24L972.667 1937.47 976.111 1868.65 1003.67 1868.65 1000.22 1937.47ZM986.444 2047.59 931.333 2047.59 931.333 1992.53 986.444 1992.53 986.444 2047.59ZM917.556 1951.24 917.556 1937.47 924.444 1868.65 952 1868.65 945.111 1937.47 945.111 1951.24C945.111 1958.81 938.911 1965 931.333 1965 923.755 1965 917.556 1958.81 917.556 1951.24ZM1124.22 1848 903.778 1848 890 1937.47 890 1951.24C890 1958.81 896.2 1965 903.778 1965L903.778 2082 1020.89 2082 1020.89 1992.53 1096.67 1992.53 1096.67 2082 1124.22 2082 1124.22 1965C1131.8 1965 1138 1958.81 1138 1951.24L1138 1937.47 1124.22 1848Z" fill="#F2F2F2" fill-rule="evenodd"/></g></svg>