<svg width="520" height="524" xmlns="http://www.w3.org/2000/svg" xmlns:xlink="http://www.w3.org/1999/xlink" xml:space="preserve" overflow="hidden"><g transform="translate(-2307 -718)"><text fill="#FFFFFF" font-family="Aptos,Aptos_MSFontService,sans-serif" font-weight="700" font-size="73" transform="matrix(1 0 0 1 2468.49 1178)">2</text><text fill="#FFFFFF" font-family="Aptos,Aptos_MSFontService,sans-serif" font-weight="700" font-size="73" transform="matrix(1 0 0 1 2507.44 1178)">5</text><text fill="#FFFFFF" font-family="Aptos,Aptos_MSFontService,sans-serif" font-weight="700" font-size="73" transform="matrix(1 0 0 1 2546.4 1178)">0</text><text fill="#FFFFFF" font-family="Aptos,Aptos_MSFontService,sans-serif" font-weight="700" font-size="73" transform="matrix(1 0 0 1 2600.26 1178)">m</text><path d="M73.9999 0C114.869-1.92243e-14 148 33.8026 148 75.5001 148 117.198 114.869 151 73.9999 151 33.1309 151 0 117.198 0 75.5001 0 67.2334 1.33067 59.0229 3.93889 51.1962" stroke="#FFFFFF" stroke-width="20.625" stroke-miterlimit="8" fill="none" fill-rule="evenodd" transform="matrix(-1 0 0 1 2641.5 849.5)"/><path d="M2525 924.5C2525 901.028 2544.03 882 2567.5 882 2590.97 882 2610 901.028 2610 924.5 2610 947.972 2590.97 967 2567.5 967 2544.03 967 2525 947.972 2525 924.5Z" fill="#FFFFFF" fill-rule="evenodd"/><path d="M117 0C181.617-3.0046e-14 234 52.8304 234 118 234 183.17 181.617 236 117 236 52.3827 236-1.5023e-14 183.17-1.5023e-14 118-1.5023e-14 105.97 1.82402 94.0108 5.40881 82.537" stroke="#FFFFFF" stroke-width="20.625" stroke-miterlimit="8" fill="none" fill-rule="evenodd" transform="matrix(-1 0 0 1 2684.5 807.5)"/><path d="M0 0 0.000360892 129.921" stroke="#FFFFFF" stroke-width="20.625" stroke-miterlimit="8" fill="none" fill-rule="evenodd" transform="matrix(1 0 0 -1 2567.5 926.421)"/></g></svg>