<svg width="520" height="525" xmlns="http://www.w3.org/2000/svg" xmlns:xlink="http://www.w3.org/1999/xlink" xml:space="preserve" overflow="hidden"><g transform="translate(-1008 -1757)"><text fill="#FFFFFF" font-family="Aptos,Aptos_MSFontService,sans-serif" font-weight="700" font-size="73" transform="matrix(1 0 0 1 1107.84 2217)">Tra</text><text fill="#FFFFFF" font-family="Aptos,Aptos_MSFontService,sans-serif" font-weight="700" font-size="73" transform="matrix(1 0 0 1 1207.21 2217)">m Line</text><path d="M1336.25 1971.5C1336.25 1975.97 1332.84 1979.62 1328.67 1979.62L1207.33 1979.62C1203.16 1979.62 1199.75 1975.97 1199.75 1971.5L1199.75 1890.25C1199.75 1881.31 1206.57 1874 1214.92 1874L1245.25 1874C1245.25 1869.53 1248.66 1865.88 1252.83 1865.88L1283.17 1865.88C1287.34 1865.88 1290.75 1869.53 1290.75 1874L1321.08 1874C1329.42 1874 1336.25 1881.31 1336.25 1890.25L1336.25 1971.5ZM1324.87 2069C1318.43 2069 1313.5 2063.72 1313.5 2056.81 1313.5 2049.91 1318.43 2044.62 1324.87 2044.62 1331.32 2044.62 1336.25 2049.91 1336.25 2056.81 1336.25 2063.72 1331.32 2069 1324.87 2069ZM1211.12 2069C1204.68 2069 1199.75 2063.72 1199.75 2056.81 1199.75 2049.91 1204.68 2044.62 1211.12 2044.62 1217.57 2044.62 1222.5 2049.91 1222.5 2056.81 1222.5 2063.72 1217.57 2069 1211.12 2069ZM1328.67 1849.63 1275.58 1849.63 1275.58 1825.25 1313.5 1825.25 1313.5 1809 1222.5 1809 1222.5 1825.25 1260.42 1825.25 1260.42 1849.63 1207.33 1849.63C1190.65 1849.63 1177 1864.25 1177 1882.13L1177 2069C1177 2082.41 1187.24 2093.38 1199.75 2093.38L1203.16 2093.38 1186.1 2134 1202.78 2134 1219.85 2093.38 1316.15 2093.38 1333.22 2134 1349.9 2134 1332.84 2093.38 1336.25 2093.38C1348.76 2093.38 1359 2082.41 1359 2069L1359 1882.13C1359 1864.25 1345.35 1849.63 1328.67 1849.63Z" fill="#FFFFFF" fill-rule="evenodd"/></g></svg>