<svg width="520" height="519" xmlns="http://www.w3.org/2000/svg" xmlns:xlink="http://www.w3.org/1999/xlink" xml:space="preserve" overflow="hidden"><g transform="translate(-2567 -1238)"><text fill="#FFFFFF" font-family="Rubik,Rubik_MSFontService,sans-serif" font-weight="700" font-size="60" transform="matrix(1 0 0 1 2826.87 1339)"> </text><text fill="#FFFFFF" font-family="Rubik,Rubik_MSFontService,sans-serif" font-weight="700" font-size="60" transform="matrix(1 0 0 1 2826.87 1411)"> </text><text fill="#FFFFFF" font-family="Rubik,Rubik_MSFontService,sans-serif" font-weight="700" font-size="60" transform="matrix(1 0 0 1 2826.87 1482)"> </text><text fill="#FFFFFF" font-family="Rubik,Rubik_MSFontService,sans-serif" font-weight="700" font-size="60" transform="matrix(1 0 0 1 2826.87 1554)"> </text><text fill="#FFFFFF" font-family="Rubik,Rubik_MSFontService,sans-serif" font-weight="700" font-size="60" transform="matrix(1 0 0 1 2826.87 1625)"> </text><text fill="#FFFFFF" font-family="Rubik,Rubik_MSFontService,sans-serif" font-weight="700" font-size="60" transform="matrix(1 0 0 1 2740.36 1697)">100 M</text><text fill="#FFFFFF" font-family="Rubik,Rubik_MSFontService,sans-serif" font-weight="700" font-size="60" transform="matrix(1 0 0 1 2913.38 1697)"> </text><path d="M74.5 0C115.645-1.9097e-14 149 33.5786 149 74.9999 149 116.421 115.645 150 74.5 150 33.3547 150-0.000164042 116.421-0.000164042 74.9999-0.000164042 66.6848 1.37339 58.4275 4.06429 50.566" stroke="#FFFFFF" stroke-width="20.625" stroke-miterlimit="8" fill="none" fill-rule="evenodd" transform="matrix(-1 0 0 1 2901.5 1369.5)"/><path d="M2784 1444C2784 1420.25 2803.03 1401 2826.5 1401 2849.97 1401 2869 1420.25 2869 1444 2869 1467.75 2849.97 1487 2826.5 1487 2803.03 1487 2784 1467.75 2784 1444Z" fill="#FFFFFF" fill-rule="evenodd"/><path d="M117 0C181.617-3.00459e-14 234 52.8303 234 118 234 183.169 181.617 236 117 236 52.3826 236-1.5023e-14 183.169-1.5023e-14 118-1.5023e-14 105.97 1.82401 94.0107 5.4088 82.5368" stroke="#FFFFFF" stroke-width="20.625" stroke-miterlimit="8" fill="none" fill-rule="evenodd" transform="matrix(-1 0 0 1 2944.5 1326.5)"/><path d="M0 0 0.000360892 129.921" stroke="#FFFFFF" stroke-width="20.625" stroke-miterlimit="8" fill="none" fill-rule="evenodd" transform="matrix(1 0 0 -1 2827.5 1445.42)"/></g></svg>