<svg width="520" height="524" xmlns="http://www.w3.org/2000/svg" xmlns:xlink="http://www.w3.org/1999/xlink" xml:space="preserve" overflow="hidden"><g transform="translate(-1008 -1238)"><text fill="#FFFFFF" font-family="Aptos,Aptos_MSFontService,sans-serif" font-weight="700" font-size="73" transform="matrix(1 0 0 1 1057.71 1697)">Tram Station</text><path d="M1336.25 1451.5C1336.25 1455.97 1332.84 1459.62 1328.67 1459.62L1207.33 1459.62C1203.16 1459.62 1199.75 1455.97 1199.75 1451.5L1199.75 1370.25C1199.75 1361.31 1206.57 1354 1214.92 1354L1245.25 1354C1245.25 1349.53 1248.66 1345.88 1252.83 1345.88L1283.17 1345.88C1287.34 1345.88 1290.75 1349.53 1290.75 1354L1321.08 1354C1329.42 1354 1336.25 1361.31 1336.25 1370.25L1336.25 1451.5ZM1324.87 1549C1318.43 1549 1313.5 1543.72 1313.5 1536.81 1313.5 1529.91 1318.43 1524.62 1324.87 1524.62 1331.32 1524.62 1336.25 1529.91 1336.25 1536.81 1336.25 1543.72 1331.32 1549 1324.87 1549ZM1211.12 1549C1204.68 1549 1199.75 1543.72 1199.75 1536.81 1199.75 1529.91 1204.68 1524.62 1211.12 1524.62 1217.57 1524.62 1222.5 1529.91 1222.5 1536.81 1222.5 1543.72 1217.57 1549 1211.12 1549ZM1328.67 1329.63 1275.58 1329.63 1275.58 1305.25 1313.5 1305.25 1313.5 1289 1222.5 1289 1222.5 1305.25 1260.42 1305.25 1260.42 1329.63 1207.33 1329.63C1190.65 1329.63 1177 1344.25 1177 1362.13L1177 1549C1177 1562.41 1187.24 1573.38 1199.75 1573.38L1203.16 1573.38 1186.1 1614 1202.78 1614 1219.85 1573.38 1316.15 1573.38 1333.22 1614 1349.9 1614 1332.84 1573.38 1336.25 1573.38C1348.76 1573.38 1359 1562.41 1359 1549L1359 1362.13C1359 1344.25 1345.35 1329.63 1328.67 1329.63Z" fill="#FFFFFF" fill-rule="evenodd"/></g></svg>