<svg width="520" height="524" xmlns="http://www.w3.org/2000/svg" xmlns:xlink="http://www.w3.org/1999/xlink" xml:space="preserve" overflow="hidden"><g transform="translate(-228 -718)"><text fill="#FFFFFF" font-family="Aptos,Aptos_MSFontService,sans-serif" font-weight="700" font-size="73" transform="matrix(1 0 0 1 409.225 1178)">2 km</text><g><g><g><path d="M488 1076.47C466.875 1076.47 448.35 1061.52 443.8 1041.05 438.925 1020.25 449.325 999.125 468.5 990.025L468.5 847.025C468.5 836.3 477.275 827.525 488 827.525 498.725 827.525 507.5 836.3 507.5 847.025L507.5 990.025C526.675 999.125 536.75 1020.25 532.2 1041.05 527.325 1061.52 509.125 1076.15 488 1076.47L488 1076.47ZM527 978.975 527 847.025C527 825.575 509.45 808.025 488 808.025 466.55 808.025 449 825.25 449 847.025L449 978.975C426.575 995.875 417.475 1025.12 426.25 1051.45 435.025 1078.1 460.05 1095.97 488 1095.97 515.95 1095.97 540.975 1078.1 549.75 1051.45 558.525 1025.12 549.425 995.875 527 978.975Z" fill="#FFFFFF"/><path d="M494.5 999.125 494.5 920.475 481.5 920.475 481.5 999.125C465.25 1002.38 453.875 1017.65 455.825 1034.22 457.45 1050.8 471.425 1063.47 488 1063.47 504.575 1063.47 518.55 1050.8 520.175 1034.22 522.125 1017.65 510.75 1002.38 494.5 999.125Z" fill="#FFFFFF"/></g></g></g></g></svg>