<svg width="520" height="520" xmlns="http://www.w3.org/2000/svg" xmlns:xlink="http://www.w3.org/1999/xlink" xml:space="preserve" overflow="hidden"><g transform="translate(-488 -1757)"><text fill="#FFFFFF" font-family="Rubik,Rubik_MSFontService,sans-serif" font-weight="700" font-size="60" transform="matrix(1 0 0 1 748.118 1859)"> </text><text fill="#FFFFFF" font-family="Rubik,Rubik_MSFontService,sans-serif" font-weight="700" font-size="60" transform="matrix(1 0 0 1 748.118 1931)"> </text><text fill="#FFFFFF" font-family="Rubik,Rubik_MSFontService,sans-serif" font-weight="700" font-size="60" transform="matrix(1 0 0 1 748.118 2002)"> </text><text fill="#FFFFFF" font-family="Rubik,Rubik_MSFontService,sans-serif" font-weight="700" font-size="60" transform="matrix(1 0 0 1 748.118 2074)"> </text><text fill="#FFFFFF" font-family="Rubik,Rubik_MSFontService,sans-serif" font-weight="700" font-size="60" transform="matrix(1 0 0 1 748.118 2145)"> </text><text fill="#FFFFFF" font-family="Rubik,Rubik_MSFontService,sans-serif" font-weight="700" font-size="60" transform="matrix(1 0 0 1 657.323 2217)">500 M</text><text fill="#FFFFFF" font-family="Rubik,Rubik_MSFontService,sans-serif" font-weight="700" font-size="60" transform="matrix(1 0 0 1 838.937 2217)"> </text><g><g><g><path d="M748 2115.48C726.875 2115.48 708.35 2100.52 703.8 2080.05 698.925 2059.25 709.325 2038.12 728.5 2029.02L728.5 1886.02C728.5 1875.3 737.275 1866.52 748 1866.52 758.725 1866.52 767.5 1875.3 767.5 1886.02L767.5 2029.02C786.675 2038.12 796.75 2059.25 792.2 2080.05 787.325 2100.52 769.125 2115.15 748 2115.48L748 2115.48ZM787 2017.97 787 1886.02C787 1864.57 769.45 1847.02 748 1847.02 726.55 1847.02 709 1864.25 709 1886.02L709 2017.97C686.575 2034.88 677.475 2064.12 686.25 2090.45 695.025 2117.1 720.05 2134.98 748 2134.98 775.95 2134.98 800.975 2117.1 809.75 2090.45 818.525 2064.12 809.425 2034.88 787 2017.97Z" fill="#FFFFFF"/><path d="M754.5 2038.12 754.5 1959.47 741.5 1959.47 741.5 2038.12C725.25 2041.38 713.875 2056.65 715.825 2073.23 717.45 2089.8 731.425 2102.48 748 2102.48 764.575 2102.48 778.55 2089.8 780.175 2073.23 782.125 2056.65 770.75 2041.38 754.5 2038.12Z" fill="#FFFFFF"/></g></g></g></g></svg>