<svg width="520" height="520" xmlns="http://www.w3.org/2000/svg" xmlns:xlink="http://www.w3.org/1999/xlink" xml:space="preserve" overflow="hidden"><g transform="translate(-228 -198)"><g><g><g><path d="M488 623.967C459.833 623.967 435.133 604.033 429.067 576.733 422.567 549 436.433 520.833 462 508.7L462 318.033C462 303.733 473.7 292.033 488 292.033 502.3 292.033 514 303.733 514 318.033L514 508.7C539.567 520.833 553 549 546.933 576.733 540.433 604.033 516.167 623.533 488 623.967L488 623.967ZM540 493.967 540 318.033C540 289.433 516.6 266.033 488 266.033 459.4 266.033 436 289 436 318.033L436 493.967C406.1 516.5 393.967 555.5 405.667 590.6 417.367 626.133 450.733 649.967 488 649.967 525.267 649.967 558.633 626.133 570.333 590.6 582.033 555.5 569.9 516.5 540 493.967Z"/><path d="M496.667 520.833 496.667 415.967 479.333 415.967 479.333 520.833C457.667 525.167 442.5 545.533 445.1 567.633 447.267 589.733 465.9 606.633 488 606.633 510.1 606.633 528.733 589.733 530.9 567.633 533.5 545.533 518.333 525.167 496.667 520.833Z"/></g></g></g></g></svg>