<svg width="520" height="524" xmlns="http://www.w3.org/2000/svg" xmlns:xlink="http://www.w3.org/1999/xlink" xml:space="preserve" overflow="hidden"><g transform="translate(-228 -718)"><g><g><g><path d="M234.65 42.25C234.65 56.6094 223.009 68.2499 208.65 68.2499 194.29 68.2499 182.65 56.6094 182.65 42.25 182.65 27.8906 194.29 16.25 208.65 16.25 223.009 16.25 234.65 27.8906 234.65 42.25Z" fill="#FFFFFF" transform="matrix(1 0 0 1 332 770)"/><path d="M271.7 77.9999C265.2 74.7499 257.4 77.0249 254.15 83.5249L242.775 104.975 192.725 73.4499C190.775 72.1499 188.5 71.4999 185.9 71.4999L130.65 71.4999C125.775 71.4999 121.55 74.0999 119.275 78.3249L98.1499 117.325C94.5749 123.5 97.1749 131.625 103.35 134.875 105.3 135.85 107.575 136.5 109.525 136.5 114.075 136.5 118.625 133.9 120.9 129.675L138.45 97.4999 157.625 97.4999 100.1 204.75 46.15 204.75C39 204.75 33.15 210.6 33.15 217.75 33.15 224.9 39 230.75 46.15 230.75L107.9 230.75C112.775 230.75 117 228.15 119.275 223.925L142.025 182 179.4 216.775 176.475 282.1C175.825 289.25 181.35 295.425 188.5 295.75 188.825 295.75 188.825 295.75 189.15 295.75 195.975 295.75 201.825 290.225 202.15 283.4L205.4 211.9C205.725 208 204.1 204.425 201.175 201.825L169.65 172.575 202.8 110.825 240.5 134.55C243.425 136.5 247.325 137.15 250.9 136.175 254.475 135.2 257.4 132.925 259.025 129.675L276.9 95.5499C280.475 89.3749 278.2 81.5749 271.7 77.9999Z" fill="#FFFFFF" transform="matrix(1 0 0 1 332 770)"/></g></g></g><text fill="#FFFFFF" font-family="Aptos,Aptos_MSFontService,sans-serif" font-weight="700" font-size="73" transform="matrix(1 0 0 1 276.377 1178)">Strava Route</text></g></svg>