<svg width="520" height="524" xmlns="http://www.w3.org/2000/svg" xmlns:xlink="http://www.w3.org/1999/xlink" xml:space="preserve" overflow="hidden"><g transform="translate(-1268 -718)"><g><g><g><path d="M1606.65 812.25C1606.65 826.609 1595.01 838.25 1580.65 838.25 1566.29 838.25 1554.65 826.609 1554.65 812.25 1554.65 797.891 1566.29 786.25 1580.65 786.25 1595.01 786.25 1606.65 797.891 1606.65 812.25Z" fill="#FFFFFF"/><path d="M1643.7 848C1637.2 844.75 1629.4 847.025 1626.15 853.525L1614.78 874.975 1564.72 843.45C1562.77 842.15 1560.5 841.5 1557.9 841.5L1502.65 841.5C1497.77 841.5 1493.55 844.1 1491.27 848.325L1470.15 887.325C1466.57 893.5 1469.17 901.625 1475.35 904.875 1477.3 905.85 1479.57 906.5 1481.52 906.5 1486.07 906.5 1490.62 903.9 1492.9 899.675L1510.45 867.5 1529.62 867.5 1472.1 974.75 1418.15 974.75C1411 974.75 1405.15 980.6 1405.15 987.75 1405.15 994.9 1411 1000.75 1418.15 1000.75L1479.9 1000.75C1484.77 1000.75 1489 998.15 1491.27 993.925L1514.02 952 1551.4 986.775 1548.47 1052.1C1547.82 1059.25 1553.35 1065.43 1560.5 1065.75 1560.82 1065.75 1560.82 1065.75 1561.15 1065.75 1567.97 1065.75 1573.82 1060.23 1574.15 1053.4L1577.4 981.9C1577.72 978 1576.1 974.425 1573.17 971.825L1541.65 942.575 1574.8 880.825 1612.5 904.55C1615.43 906.5 1619.32 907.15 1622.9 906.175 1626.47 905.2 1629.4 902.925 1631.03 899.675L1648.9 865.55C1652.47 859.375 1650.2 851.575 1643.7 848Z" fill="#FFFFFF"/></g></g></g><text fill="#FFFFFF" font-family="Aptos,Aptos_MSFontService,sans-serif" font-weight="700" font-size="73" transform="matrix(1 0 0 1 1429.01 1178)">Route</text></g></svg>