<svg width="520" height="524" xmlns="http://www.w3.org/2000/svg" xmlns:xlink="http://www.w3.org/1999/xlink" xml:space="preserve" overflow="hidden"><g transform="translate(-1008 -1238)"><text fill="#FFFFFF" font-family="Aptos,Aptos_MSFontService,sans-serif" font-weight="700" font-size="73" transform="matrix(1 0 0 1 1092.63 1697)">Metro </text><text fill="#FFFFFF" font-family="Aptos,Aptos_MSFontService,sans-serif" font-weight="700" font-size="73" transform="matrix(1 0 0 1 1302.64 1697)">Line</text><path d="M1125.5 1601.5 1125.5 1512.81 1125.5 1428.17 1125.5 1391.06C1125.5 1334.97 1169.18 1289.5 1223.07 1289.5L1268.5 1289.5 1313.93 1289.5C1367.82 1289.5 1411.5 1334.97 1411.5 1391.06L1411.5 1428.17 1411.5 1512.81 1411.5 1601.5" stroke="#FFFFFF" stroke-width="20.625" stroke-miterlimit="8" fill="none" fill-rule="evenodd"/><path d="M1336.25 1437.57C1336.25 1442.07 1332.84 1445.74 1328.67 1445.74L1207.33 1445.74C1203.16 1445.74 1199.75 1442.07 1199.75 1437.57L1199.75 1355.86C1199.75 1346.87 1206.57 1339.51 1214.92 1339.51L1245.25 1339.51C1245.25 1335.02 1248.66 1331.34 1252.83 1331.34L1283.17 1331.34C1287.34 1331.34 1290.75 1335.02 1290.75 1339.51L1321.08 1339.51C1329.42 1339.51 1336.25 1346.87 1336.25 1355.86L1336.25 1437.57ZM1324.87 1535.63C1318.43 1535.63 1313.5 1530.32 1313.5 1523.37 1313.5 1516.43 1318.43 1511.11 1324.87 1511.11 1331.32 1511.11 1336.25 1516.43 1336.25 1523.37 1336.25 1530.32 1331.32 1535.63 1324.87 1535.63ZM1211.12 1535.63C1204.68 1535.63 1199.75 1530.32 1199.75 1523.37 1199.75 1516.43 1204.68 1511.11 1211.12 1511.11 1217.57 1511.11 1222.5 1516.43 1222.5 1523.37 1222.5 1530.32 1217.57 1535.63 1211.12 1535.63ZM1328.67 1315 1275.58 1315 1260.42 1315 1207.33 1315C1190.65 1315 1177 1329.71 1177 1347.69L1177 1535.63C1177 1549.11 1187.24 1560.14 1199.75 1560.14L1203.16 1560.14 1186.1 1601 1202.78 1601 1219.85 1560.14 1316.15 1560.14 1333.22 1601 1349.9 1601 1332.84 1560.14 1336.25 1560.14C1348.76 1560.14 1359 1549.11 1359 1535.63L1359 1347.69C1359 1329.71 1345.35 1315 1328.67 1315Z" fill="#F2F2F2" fill-rule="evenodd"/></g></svg>