<svg width="520" height="519" xmlns="http://www.w3.org/2000/svg" xmlns:xlink="http://www.w3.org/1999/xlink" xml:space="preserve" overflow="hidden"><g transform="translate(-488 -1238)"><text fill="#FFFFFF" font-family="Rubik,Rubik_MSFontService,sans-serif" font-weight="700" font-size="60" transform="matrix(1 0 0 1 748.13 1339)"> </text><text fill="#FFFFFF" font-family="Rubik,Rubik_MSFontService,sans-serif" font-weight="700" font-size="60" transform="matrix(1 0 0 1 748.13 1411)"> </text><text fill="#FFFFFF" font-family="Rubik,Rubik_MSFontService,sans-serif" font-weight="700" font-size="60" transform="matrix(1 0 0 1 748.13 1482)"> </text><text fill="#FFFFFF" font-family="Rubik,Rubik_MSFontService,sans-serif" font-weight="700" font-size="60" transform="matrix(1 0 0 1 748.13 1554)"> </text><text fill="#FFFFFF" font-family="Rubik,Rubik_MSFontService,sans-serif" font-weight="700" font-size="60" transform="matrix(1 0 0 1 748.13 1625)"> </text><text fill="#FFFFFF" font-family="Rubik,Rubik_MSFontService,sans-serif" font-weight="700" font-size="60" transform="matrix(1 0 0 1 581.984 1697)">TRAIN LINE</text><text fill="#FFFFFF" font-family="Rubik,Rubik_MSFontService,sans-serif" font-weight="700" font-size="60" transform="matrix(1 0 0 1 914.276 1697)"> </text><path d="M812.375 1437.57C812.375 1442.07 808.981 1445.74 804.833 1445.74L684.167 1445.74C680.019 1445.74 676.625 1442.07 676.625 1437.57L676.625 1355.86C676.625 1346.87 683.413 1339.51 691.708 1339.51L721.875 1339.51C721.875 1335.02 725.269 1331.34 729.417 1331.34L759.583 1331.34C763.731 1331.34 767.125 1335.02 767.125 1339.51L797.292 1339.51C805.588 1339.51 812.375 1346.87 812.375 1355.86L812.375 1437.57ZM801.062 1535.63C794.652 1535.63 789.75 1530.32 789.75 1523.37 789.75 1516.43 794.652 1511.11 801.062 1511.11 807.473 1511.11 812.375 1516.43 812.375 1523.37 812.375 1530.32 807.473 1535.63 801.062 1535.63ZM687.938 1535.63C681.527 1535.63 676.625 1530.32 676.625 1523.37 676.625 1516.43 681.527 1511.11 687.938 1511.11 694.348 1511.11 699.25 1516.43 699.25 1523.37 699.25 1530.32 694.348 1535.63 687.938 1535.63ZM804.833 1315 752.042 1315 736.958 1315 684.167 1315C667.575 1315 654 1329.71 654 1347.69L654 1535.63C654 1549.11 664.181 1560.14 676.625 1560.14L680.019 1560.14 663.05 1601 679.642 1601 696.611 1560.14 792.39 1560.14 809.358 1601 825.95 1601 808.981 1560.14 812.375 1560.14C824.819 1560.14 835 1549.11 835 1535.63L835 1347.69C835 1329.71 821.425 1315 804.833 1315Z" fill="#FFFFFF" fill-rule="evenodd"/></g></svg>