<svg width="520" height="520" xmlns="http://www.w3.org/2000/svg" xmlns:xlink="http://www.w3.org/1999/xlink" xml:space="preserve" overflow="hidden"><g transform="translate(-228 -198)"><g><g><g><path d="M488 566.333C444.667 566.333 410 531.667 410 488.333 410 445 444.667 410.333 488 410.333 531.333 410.333 566 445 566 488.333 566 531.667 531.333 566.333 488 566.333ZM401.333 427.667 349.333 427.667 349.333 393 401.333 393 401.333 427.667ZM644 358.333 557.333 358.333 531.333 315 444.667 315 418.667 358.333 332 358.333C322.467 358.333 314.667 366.133 314.667 375.667L314.667 583.667C314.667 593.2 322.467 601 332 601L644 601C653.533 601 661.333 593.2 661.333 583.667L661.333 375.667C661.333 366.133 653.533 358.333 644 358.333Z"/><path d="M488 445C463.733 445 444.667 464.067 444.667 488.333 444.667 512.6 463.733 531.667 488 531.667 512.267 531.667 531.333 512.6 531.333 488.333 531.333 464.067 512.267 445 488 445ZM488 549C454.2 549 427.333 522.133 427.333 488.333 427.333 454.533 454.2 427.667 488 427.667 521.8 427.667 548.667 454.533 548.667 488.333 548.667 522.133 521.8 549 488 549Z"/></g></g></g></g></svg>