<svg width="519" height="525" xmlns="http://www.w3.org/2000/svg" xmlns:xlink="http://www.w3.org/1999/xlink" xml:space="preserve" overflow="hidden"><g transform="translate(-1788 -1757)"><text fill="#FFFFFF" font-family="Aptos,Aptos_MSFontService,sans-serif" font-weight="700" font-size="73" transform="matrix(1 0 0 1 1948.8 2217)">50</text><text fill="#FFFFFF" font-family="Aptos,Aptos_MSFontService,sans-serif" font-weight="700" font-size="73" transform="matrix(1 0 0 1 2026.72 2217)">0</text><text fill="#FFFFFF" font-family="Aptos,Aptos_MSFontService,sans-serif" font-weight="700" font-size="73" transform="matrix(1 0 0 1 2080.57 2217)">m</text><path d="M74.5 0C115.645-1.9097e-14 149 33.5786 149 74.9999 149 116.421 115.645 150 74.5 150 33.3547 150-0.000164042 116.421-0.000164042 74.9999-0.000164042 66.6848 1.37339 58.4275 4.06429 50.566" stroke="#FFFFFF" stroke-width="20.625" stroke-miterlimit="8" fill="none" fill-rule="evenodd" transform="matrix(-1 0 0 1 2122.5 1889.5)"/><path d="M2005 1964C2005 1940.25 2024.03 1921 2047.5 1921 2070.97 1921 2090 1940.25 2090 1964 2090 1987.75 2070.97 2007 2047.5 2007 2024.03 2007 2005 1987.75 2005 1964Z" fill="#FFFFFF" fill-rule="evenodd"/><path d="M117 0C181.617-3.00459e-14 234 52.8303 234 118 234 183.169 181.617 236 117 236 52.3826 236-1.5023e-14 183.169-1.5023e-14 118-1.5023e-14 105.97 1.82401 94.0107 5.4088 82.5368" stroke="#FFFFFF" stroke-width="20.625" stroke-miterlimit="8" fill="none" fill-rule="evenodd" transform="matrix(-1 0 0 1 2164.5 1846.5)"/><path d="M0 0 0.000360892 129.921" stroke="#FFFFFF" stroke-width="20.625" stroke-miterlimit="8" fill="none" fill-rule="evenodd" transform="matrix(1 0 0 -1 2047.5 1965.42)"/></g></svg>