<svg width="520" height="520" xmlns="http://www.w3.org/2000/svg" xmlns:xlink="http://www.w3.org/1999/xlink" xml:space="preserve" overflow="hidden"><g transform="translate(-2047 -718)"><text fill="#FFFFFF" font-family="Rubik,Rubik_MSFontService,sans-serif" font-weight="700" font-size="60" transform="matrix(1 0 0 1 2307.17 819)"> </text><text fill="#FFFFFF" font-family="Rubik,Rubik_MSFontService,sans-serif" font-weight="700" font-size="60" transform="matrix(1 0 0 1 2307.17 891)"> </text><text fill="#FFFFFF" font-family="Rubik,Rubik_MSFontService,sans-serif" font-weight="700" font-size="60" transform="matrix(1 0 0 1 2307.17 962)"> </text><text fill="#FFFFFF" font-family="Rubik,Rubik_MSFontService,sans-serif" font-weight="700" font-size="60" transform="matrix(1 0 0 1 2307.17 1034)"> </text><text fill="#FFFFFF" font-family="Rubik,Rubik_MSFontService,sans-serif" font-weight="700" font-size="60" transform="matrix(1 0 0 1 2307.17 1105)"> </text><text fill="#FFFFFF" font-family="Rubik,Rubik_MSFontService,sans-serif" font-weight="700" font-size="60" transform="matrix(1 0 0 1 2179.14 1177)">CHURCH</text><text fill="#FFFFFF" font-family="Rubik,Rubik_MSFontService,sans-serif" font-weight="700" font-size="60" transform="matrix(1 0 0 1 2435.23 1177)"> </text><g><g><g><path d="M2336.25 893.5 2329.75 875.625 2325.14 888.3 2307 805.75 2288.86 888.3 2284.25 875.625 2277.75 893.5 2277.75 916.25 2307 894.313 2336.25 916.25 2336.25 893.5Z" fill="#FFFFFF"/><path d="M2312.55 968.991 2307 964.675 2301.51 968.975C2289.66 978.189 2282.75 992.372 2282.8 1007.38L2282.8 1075.5 2292.99 1075.5 2292.99 1033.25 2320.94 1033.25 2320.94 1075.5 2331.34 1075.5 2331.34 1007.49C2331.4 992.433 2324.45 978.207 2312.55 968.991ZM2307 1013.75C2301.61 1013.75 2297.25 1009.39 2297.25 1004 2297.25 998.615 2301.61 994.25 2307 994.25 2312.38 994.25 2316.75 998.615 2316.75 1004 2316.75 1009.39 2312.38 1013.75 2307 1013.75Z" fill="#FFFFFF"/><path d="M2346 935.75 2307 906.5 2268 935.75 2255 935.75 2255 1075.5 2273.06 1075.5 2273.06 1007.39C2273 989.378 2281.29 972.36 2295.51 961.302L2307 952.325 2318.54 961.302C2332.84 972.353 2341.18 989.42 2341.12 1007.49L2341.12 1075.5 2359 1075.5 2359 935.75Z" fill="#FFFFFF"/><path d="M2427.25 867.5 2420.75 849.625 2416.17 862.219 2398 776.5 2379.83 862.219 2375.25 849.625 2368.75 867.5 2368.75 1075.5 2427.25 1075.5ZM2406.45 1043 2389.55 1043 2389.55 1008.4C2389.55 1002.31 2391.53 996.379 2395.18 991.504L2398 987.75 2400.82 991.507C2404.47 996.382 2406.45 1002.31 2406.45 1008.41ZM2406.45 939 2389.55 939 2389.55 917.404C2389.55 911.309 2391.53 905.379 2395.18 900.504L2398 896.75 2400.82 900.507C2404.47 905.382 2406.45 911.313 2406.45 917.407Z" fill="#FFFFFF"/><path d="M2245.25 867.5 2238.75 849.625 2234.17 862.219 2216 776.5 2197.83 862.219 2193.25 849.625 2186.75 867.5 2186.75 1075.5 2245.25 1075.5ZM2224.45 1043 2207.55 1043 2207.55 1008.4C2207.55 1002.31 2209.53 996.379 2213.18 991.504L2216 987.75 2218.82 991.507C2222.47 996.382 2224.45 1002.31 2224.45 1008.41ZM2224.45 939 2207.55 939 2207.55 917.404C2207.55 911.309 2209.53 905.379 2213.18 900.504L2216 896.75 2218.82 900.507C2222.47 905.382 2224.45 911.313 2224.45 917.407Z" fill="#FFFFFF"/></g></g></g></g></svg>