<svg width="520" height="519" xmlns="http://www.w3.org/2000/svg" xmlns:xlink="http://www.w3.org/1999/xlink" xml:space="preserve" overflow="hidden"><g transform="translate(-1008 -1238)"><text fill="#FFFFFF" font-family="Rubik,Rubik_MSFontService,sans-serif" font-weight="700" font-size="60" transform="matrix(1 0 0 1 1267.81 1339)"> </text><text fill="#FFFFFF" font-family="Rubik,Rubik_MSFontService,sans-serif" font-weight="700" font-size="60" transform="matrix(1 0 0 1 1267.81 1411)"> </text><text fill="#FFFFFF" font-family="Rubik,Rubik_MSFontService,sans-serif" font-weight="700" font-size="60" transform="matrix(1 0 0 1 1267.81 1482)"> </text><text fill="#FFFFFF" font-family="Rubik,Rubik_MSFontService,sans-serif" font-weight="700" font-size="60" transform="matrix(1 0 0 1 1267.81 1554)"> </text><text fill="#FFFFFF" font-family="Rubik,Rubik_MSFontService,sans-serif" font-weight="700" font-size="60" transform="matrix(1 0 0 1 1267.81 1625)"> </text><text fill="#FFFFFF" font-family="Rubik,Rubik_MSFontService,sans-serif" font-weight="700" font-size="60" transform="matrix(1 0 0 1 1148.08 1697)">A</text><text fill="#FFFFFF" font-family="Rubik,Rubik_MSFontService,sans-serif" font-weight="700" font-size="60" transform="matrix(1 0 0 1 1190.47 1697)">-</text><text fill="#FFFFFF" font-family="Rubik,Rubik_MSFontService,sans-serif" font-weight="700" font-size="60" transform="matrix(1 0 0 1 1219.12 1697)">ROAD</text><text fill="#FFFFFF" font-family="Rubik,Rubik_MSFontService,sans-serif" font-weight="700" font-size="60" transform="matrix(1 0 0 1 1387.55 1697)"> </text><path d="M1387.76 1462.18C1387.76 1466.78 1383.98 1470.54 1379.35 1470.54L1354.12 1470.54C1349.49 1470.54 1345.71 1466.78 1345.71 1462.18L1345.71 1453.82C1345.71 1449.23 1349.49 1445.46 1354.12 1445.46L1379.35 1445.46C1383.98 1445.46 1387.76 1449.23 1387.76 1453.82L1387.76 1462.18ZM1170.32 1420.39 1194.72 1362.73C1195.98 1359.8 1198.92 1357.71 1202.29 1357.71L1336.87 1357.71C1340.24 1357.71 1343.18 1359.8 1344.44 1362.73L1369.68 1420.39 1170.32 1420.39ZM1194.29 1462.18C1194.29 1466.78 1190.51 1470.54 1185.88 1470.54L1160.65 1470.54C1156.02 1470.54 1152.24 1466.78 1152.24 1462.18L1152.24 1453.82C1152.24 1449.23 1156.02 1445.46 1160.65 1445.46L1185.88 1445.46C1190.51 1445.46 1194.29 1449.23 1194.29 1453.82L1194.29 1462.18ZM1387.76 1420.39 1360.43 1356.46C1356.64 1346.85 1347.39 1341 1337.29 1341L1303.65 1341 1236.35 1341 1202.71 1341C1192.61 1341 1183.36 1346.85 1179.57 1356.46L1152.24 1420.39C1138.36 1420.39 1127 1431.68 1127 1445.46L1127 1512.32C1127 1521.51 1134.57 1529.04 1143.82 1529.04L1152.24 1529.04 1152.24 1558.29C1152.24 1567.48 1159.81 1575 1169.06 1575L1177.47 1575C1186.72 1575 1194.29 1567.48 1194.29 1558.29L1194.29 1529.04 1345.71 1529.04 1345.71 1558.29C1345.71 1567.48 1353.28 1575 1362.53 1575L1370.94 1575C1380.19 1575 1387.76 1567.48 1387.76 1558.29L1387.76 1529.04 1396.18 1529.04C1405.43 1529.04 1413 1521.51 1413 1512.32L1413 1445.46C1413 1431.68 1401.64 1420.39 1387.76 1420.39Z" fill="#FFFFFF" fill-rule="evenodd"/></g></svg>