<svg width="520" height="525" xmlns="http://www.w3.org/2000/svg" xmlns:xlink="http://www.w3.org/1999/xlink" xml:space="preserve" overflow="hidden"><g transform="translate(-492 -1757)"><text fill="#FFFFFF" font-family="Aptos,Aptos_MSFontService,sans-serif" font-weight="700" font-size="73" transform="matrix(1 0 0 1 543.376 2217)">Train Station</text><path d="M816.25 1957.57C816.25 1962.07 812.838 1965.74 808.667 1965.74L687.333 1965.74C683.162 1965.74 679.75 1962.07 679.75 1957.57L679.75 1875.86C679.75 1866.87 686.575 1859.51 694.917 1859.51L725.25 1859.51C725.25 1855.02 728.662 1851.34 732.833 1851.34L763.167 1851.34C767.338 1851.34 770.75 1855.02 770.75 1859.51L801.083 1859.51C809.425 1859.51 816.25 1866.87 816.25 1875.86L816.25 1957.57ZM804.875 2055.63C798.429 2055.63 793.5 2050.32 793.5 2043.37 793.5 2036.43 798.429 2031.11 804.875 2031.11 811.321 2031.11 816.25 2036.43 816.25 2043.37 816.25 2050.32 811.321 2055.63 804.875 2055.63ZM691.125 2055.63C684.679 2055.63 679.75 2050.32 679.75 2043.37 679.75 2036.43 684.679 2031.11 691.125 2031.11 697.571 2031.11 702.5 2036.43 702.5 2043.37 702.5 2050.32 697.571 2055.63 691.125 2055.63ZM808.667 1835 755.583 1835 740.417 1835 687.333 1835C670.65 1835 657 1849.71 657 1867.69L657 2055.63C657 2069.11 667.237 2080.14 679.75 2080.14L683.162 2080.14 666.1 2121 682.783 2121 699.846 2080.14 796.154 2080.14 813.217 2121 829.9 2121 812.838 2080.14 816.25 2080.14C828.763 2080.14 839 2069.11 839 2055.63L839 1867.69C839 1849.71 825.35 1835 808.667 1835Z" fill="#FFFFFF" fill-rule="evenodd"/></g></svg>