<svg width="520" height="520" xmlns="http://www.w3.org/2000/svg" xmlns:xlink="http://www.w3.org/1999/xlink" xml:space="preserve" overflow="hidden"><g transform="translate(-488 -198)"><path d="M592 594C592 565.281 615.281 542 644 542 672.719 542 696 565.281 696 594 696 622.719 672.719 646 644 646 615.281 646 592 622.719 592 594Z" stroke="#000000" stroke-width="27.5" stroke-miterlimit="8" fill-rule="evenodd"/><path d="M800 594C800 565.281 823.281 542 852 542 880.719 542 904 565.281 904 594 904 622.719 880.719 646 852 646 823.281 646 800 622.719 800 594Z" stroke="#000000" stroke-width="27.5" stroke-miterlimit="8" fill="none" fill-rule="evenodd"/><path d="M696 594 799.937 594" stroke="#000000" stroke-width="27.5" stroke-miterlimit="8" fill="none" fill-rule="evenodd"/><path d="M853.5 383.823C834.51 383.823 819.317 368.647 819.317 349.676 819.317 330.706 834.51 315.529 853.5 315.529 872.491 315.529 887.683 330.706 887.683 349.676 887.683 368.647 872.491 383.823 853.5 383.823ZM853.5 270C827.293 270 802.606 282.9 787.793 304.906 772.98 326.532 769.942 354.229 779.437 378.891L815.519 458.568 846.664 523.826C847.803 526.482 850.462 528 853.5 528 856.539 528 859.197 526.482 860.337 523.826L891.481 458.568 927.563 378.891C937.058 354.229 934.02 326.532 919.207 304.906 904.395 282.9 879.707 270 853.5 270Z" fill-rule="evenodd"/><path d="M643 383.823C624.129 383.823 609.032 368.647 609.032 349.676 609.032 330.706 624.129 315.529 643 315.529 661.871 315.529 676.968 330.706 676.968 349.676 676.968 368.647 661.871 383.823 643 383.823ZM643 270C616.958 270 592.426 282.9 577.706 304.906 562.987 326.532 559.967 354.229 569.403 378.891L605.258 458.568 636.207 523.826C637.339 526.482 639.981 528 643 528 646.02 528 648.661 526.482 649.794 523.826L680.742 458.568 716.597 378.891C726.033 354.229 723.014 326.532 708.294 304.906 693.575 282.9 669.042 270 643 270Z" fill-rule="evenodd"/></g></svg>