<svg width="520" height="525" xmlns="http://www.w3.org/2000/svg" xmlns:xlink="http://www.w3.org/1999/xlink" xml:space="preserve" overflow="hidden"><g transform="translate(-1008 -1757)"><text fill="#FFFFFF" font-family="Aptos,Aptos_MSFontService,sans-serif" font-weight="700" font-size="73" transform="matrix(1 0 0 1 1156.8 2217)">A</text><text fill="#FFFFFF" font-family="Aptos,Aptos_MSFontService,sans-serif" font-weight="700" font-size="73" transform="matrix(1 0 0 1 1202.06 2217)">-</text><text fill="#FFFFFF" font-family="Aptos,Aptos_MSFontService,sans-serif" font-weight="700" font-size="73" transform="matrix(1 0 0 1 1227.26 2217)">road</text><path d="M1387.76 1982.18C1387.76 1986.78 1383.98 1990.54 1379.35 1990.54L1354.12 1990.54C1349.49 1990.54 1345.71 1986.78 1345.71 1982.18L1345.71 1973.82C1345.71 1969.23 1349.49 1965.46 1354.12 1965.46L1379.35 1965.46C1383.98 1965.46 1387.76 1969.23 1387.76 1973.82L1387.76 1982.18ZM1170.32 1940.39 1194.72 1882.73C1195.98 1879.8 1198.92 1877.71 1202.29 1877.71L1336.87 1877.71C1340.24 1877.71 1343.18 1879.8 1344.44 1882.73L1369.68 1940.39 1170.32 1940.39ZM1194.29 1982.18C1194.29 1986.78 1190.51 1990.54 1185.88 1990.54L1160.65 1990.54C1156.02 1990.54 1152.24 1986.78 1152.24 1982.18L1152.24 1973.82C1152.24 1969.23 1156.02 1965.46 1160.65 1965.46L1185.88 1965.46C1190.51 1965.46 1194.29 1969.23 1194.29 1973.82L1194.29 1982.18ZM1387.76 1940.39 1360.43 1876.46C1356.64 1866.85 1347.39 1861 1337.29 1861L1303.65 1861 1236.35 1861 1202.71 1861C1192.61 1861 1183.36 1866.85 1179.57 1876.46L1152.24 1940.39C1138.36 1940.39 1127 1951.68 1127 1965.46L1127 2032.32C1127 2041.51 1134.57 2049.04 1143.82 2049.04L1152.24 2049.04 1152.24 2078.29C1152.24 2087.48 1159.81 2095 1169.06 2095L1177.47 2095C1186.72 2095 1194.29 2087.48 1194.29 2078.29L1194.29 2049.04 1345.71 2049.04 1345.71 2078.29C1345.71 2087.48 1353.28 2095 1362.53 2095L1370.94 2095C1380.19 2095 1387.76 2087.48 1387.76 2078.29L1387.76 2049.04 1396.18 2049.04C1405.43 2049.04 1413 2041.51 1413 2032.32L1413 1965.46C1413 1951.68 1401.64 1940.39 1387.76 1940.39Z" fill="#FFFFFF" fill-rule="evenodd"/></g></svg>