<svg width="520" height="520" xmlns="http://www.w3.org/2000/svg" xmlns:xlink="http://www.w3.org/1999/xlink" xml:space="preserve" overflow="hidden"><g transform="translate(-488 -718)"><text fill="#FFFFFF" font-family="Rubik,Rubik_MSFontService,sans-serif" font-weight="700" font-size="60" transform="matrix(1 0 0 1 748.118 819)"> </text><text fill="#FFFFFF" font-family="Rubik,Rubik_MSFontService,sans-serif" font-weight="700" font-size="60" transform="matrix(1 0 0 1 748.118 891)"> </text><text fill="#FFFFFF" font-family="Rubik,Rubik_MSFontService,sans-serif" font-weight="700" font-size="60" transform="matrix(1 0 0 1 748.118 962)"> </text><text fill="#FFFFFF" font-family="Rubik,Rubik_MSFontService,sans-serif" font-weight="700" font-size="60" transform="matrix(1 0 0 1 748.118 1034)"> </text><text fill="#FFFFFF" font-family="Rubik,Rubik_MSFontService,sans-serif" font-weight="700" font-size="60" transform="matrix(1 0 0 1 748.118 1105)"> </text><text fill="#FFFFFF" font-family="Rubik,Rubik_MSFontService,sans-serif" font-weight="700" font-size="60" transform="matrix(1 0 0 1 622.948 1177)">SUBURB</text><text fill="#FFFFFF" font-family="Rubik,Rubik_MSFontService,sans-serif" font-weight="700" font-size="60" transform="matrix(1 0 0 1 873.312 1177)"> </text><path d="M648 1010.61 668 1010.61 668 1030.72 648 1030.72 648 1010.61ZM648 970.389 668 970.389 668 990.5 648 990.5 648 970.389ZM648 930.167 668 930.167 668 950.278 648 950.278 648 930.167ZM688 1010.61 708 1010.61 708 1030.72 688 1030.72 688 1010.61ZM688 970.389 708 970.389 708 990.5 688 990.5 688 970.389ZM688 930.167 708 930.167 708 950.278 688 950.278 688 930.167ZM618 1081 668 1081 668 1050.83 688 1050.83 688 1081 738 1081 738 900 618 900 618 1081Z" fill="#FFFFFF" fill-rule="evenodd"/><path d="M788 1010.5 808 1010.5 808 1030.64 788 1030.64 788 1010.5ZM788 970.214 808 970.214 808 990.357 788 990.357 788 970.214ZM828 1010.5 848 1010.5 848 1030.64 828 1030.64 828 1010.5ZM828 970.214 848 970.214 848 990.357 828 990.357 828 970.214ZM758 1081 808 1081 808 1050.79 828 1050.79 828 1081 878 1081 878 940 758 940 758 1081Z" fill="#FFFFFF" fill-rule="evenodd"/><path d="M758 840 778 840 778 860 758 860 758 840ZM758 800 778 800 778 820 758 820 758 800ZM738 820 718 820 718 800 738 800 738 820ZM738 860 718 860 718 840 738 840 738 860ZM758 920 808 920 808 770 688 770 688 880 758 880 758 920Z" fill="#FFFFFF" fill-rule="evenodd"/></g></svg>