<svg width="520" height="519" xmlns="http://www.w3.org/2000/svg" xmlns:xlink="http://www.w3.org/1999/xlink" xml:space="preserve" overflow="hidden"><g transform="translate(-228 -1238)"><text fill="#FFFFFF" font-family="Rubik,Rubik_MSFontService,sans-serif" font-weight="700" font-size="60" transform="matrix(1 0 0 1 488.276 1339)"> </text><text fill="#FFFFFF" font-family="Rubik,Rubik_MSFontService,sans-serif" font-weight="700" font-size="60" transform="matrix(1 0 0 1 488.276 1411)"> </text><text fill="#FFFFFF" font-family="Rubik,Rubik_MSFontService,sans-serif" font-weight="700" font-size="60" transform="matrix(1 0 0 1 488.276 1482)"> </text><text fill="#FFFFFF" font-family="Rubik,Rubik_MSFontService,sans-serif" font-weight="700" font-size="60" transform="matrix(1 0 0 1 488.276 1554)"> </text><text fill="#FFFFFF" font-family="Rubik,Rubik_MSFontService,sans-serif" font-weight="700" font-size="60" transform="matrix(1 0 0 1 488.276 1625)"> </text><text fill="#FFFFFF" font-family="Rubik,Rubik_MSFontService,sans-serif" font-weight="700" font-size="60" transform="matrix(1 0 0 1 428.418 1697)">SKY</text><text fill="#FFFFFF" font-family="Rubik,Rubik_MSFontService,sans-serif" font-weight="700" font-size="60" transform="matrix(1 0 0 1 548.157 1697)"> </text><path d="M519 1331 532 1331 532 1373 519 1373Z" fill="#F2F2F2" fill-rule="evenodd"/><path d="M605.901 1367.32 576.733 1396.49 567.011 1386.76 596.179 1357.6Z" fill="#F2F2F2" fill-rule="evenodd"/><path d="M591 1431 632 1431 632 1445 591 1445Z" fill="#F2F2F2" fill-rule="evenodd"/><path d="M605.831 1508.23 596.109 1517.95 566.941 1488.78 576.664 1479.06Z" fill="#F2F2F2" fill-rule="evenodd"/><path d="M419 1431 460 1431 460 1445 419 1445Z" fill="#F2F2F2" fill-rule="evenodd"/><path d="M484.192 1386.94 474.469 1396.66 445.301 1367.49 455.024 1357.77Z" fill="#F2F2F2" fill-rule="evenodd"/><path d="M546.324 1523.55C544.608 1523.55 542.891 1523.55 541.174 1523.89 541.174 1523.89 541.174 1523.55 541.174 1523.55 541.174 1510.46 534.993 1497.71 524.004 1490.13 513.359 1482.21 499.624 1480.14 486.919 1484.28 476.273 1464.3 453.267 1453.96 431.29 1459.47 409.313 1464.64 393.86 1484.28 393.174 1507.01 378.751 1504.26 363.299 1509.77 353.684 1521.82 344.412 1533.88 342.352 1550.42 348.533 1564.2 354.714 1578.32 368.106 1587.62 383.559 1588.66L548.385 1589C566.241 1588.66 580.663 1573.5 579.976 1555.24 579.633 1537.33 564.524 1523.2 546.324 1523.55Z" fill="#F2F2F2" fill-rule="evenodd"/><path d="M476.635 1454.32C482.833 1458.1 488.686 1463.26 493.161 1469.11 511.065 1467.05 528.624 1473.58 540.674 1487 560.643 1480.81 575.103 1463.26 576.824 1442.28 578.546 1421.29 567.528 1401.34 548.937 1391.7 530.345 1382.07 507.622 1384.82 491.784 1398.58 475.947 1412.34 470.094 1434.36 476.635 1454.32L476.635 1454.32Z" fill="#F2F2F2" fill-rule="evenodd"/></g></svg>