<svg width="520" height="520" xmlns="http://www.w3.org/2000/svg" xmlns:xlink="http://www.w3.org/1999/xlink" xml:space="preserve" overflow="hidden"><g transform="translate(-2567 -718)"><text fill="#FFFFFF" font-family="Rubik,Rubik_MSFontService,sans-serif" font-weight="700" font-size="60" transform="matrix(1 0 0 1 2826.87 819)"> </text><text fill="#FFFFFF" font-family="Rubik,Rubik_MSFontService,sans-serif" font-weight="700" font-size="60" transform="matrix(1 0 0 1 2826.87 891)"> </text><text fill="#FFFFFF" font-family="Rubik,Rubik_MSFontService,sans-serif" font-weight="700" font-size="60" transform="matrix(1 0 0 1 2826.87 962)"> </text><text fill="#FFFFFF" font-family="Rubik,Rubik_MSFontService,sans-serif" font-weight="700" font-size="60" transform="matrix(1 0 0 1 2826.87 1034)"> </text><text fill="#FFFFFF" font-family="Rubik,Rubik_MSFontService,sans-serif" font-weight="700" font-size="60" transform="matrix(1 0 0 1 2826.87 1105)"> </text><text fill="#FFFFFF" font-family="Rubik,Rubik_MSFontService,sans-serif" font-weight="700" font-size="60" transform="matrix(1 0 0 1 2736.92 1177)">250 M</text><text fill="#FFFFFF" font-family="Rubik,Rubik_MSFontService,sans-serif" font-weight="700" font-size="60" transform="matrix(1 0 0 1 2916.82 1177)"> </text><path d="M74.5001 0C115.645-1.92243e-14 149 33.8026 149 75.5001 149 117.198 115.645 151 74.5001 151 33.3548 151-9.61218e-15 117.198-9.61218e-15 75.5001-1.92244e-14 67.1813 1.35662 58.9196 4.01503 51.0491" stroke="#FFFFFF" stroke-width="20.625" stroke-miterlimit="8" fill="none" fill-rule="evenodd" transform="matrix(-1 0 0 1 2901.5 849.5)"/><path d="M2784 924.5C2784 901.028 2803.03 882 2826.5 882 2849.97 882 2869 901.028 2869 924.5 2869 947.972 2849.97 967 2826.5 967 2803.03 967 2784 947.972 2784 924.5Z" fill="#FFFFFF" fill-rule="evenodd"/><path d="M117 0C181.617-3.0046e-14 234 52.8304 234 118 234 183.17 181.617 236 117 236 52.3827 236-1.5023e-14 183.17-1.5023e-14 118-1.5023e-14 105.97 1.82402 94.0108 5.40881 82.537" stroke="#FFFFFF" stroke-width="20.625" stroke-miterlimit="8" fill="none" fill-rule="evenodd" transform="matrix(-1 0 0 1 2944.5 807.5)"/><path d="M0 0 0.000360892 129.921" stroke="#FFFFFF" stroke-width="20.625" stroke-miterlimit="8" fill="none" fill-rule="evenodd" transform="matrix(1 0 0 -1 2827.5 926.421)"/></g></svg>