<svg width="151" height="151" xmlns="http://www.w3.org/2000/svg" xmlns:xlink="http://www.w3.org/1999/xlink" xml:space="preserve" overflow="hidden"><g transform="translate(-501 -66)"><path d="M576.5 135.208C568.635 135.208 562.344 128.917 562.344 121.052 562.344 113.188 568.635 106.896 576.5 106.896 584.365 106.896 590.656 113.188 590.656 121.052 590.656 128.917 584.365 135.208 576.5 135.208ZM576.5 88.0208C565.647 88.0208 555.423 93.3688 549.289 102.492 543.154 111.457 541.896 122.94 545.828 133.164L560.771 166.195 573.669 193.249C574.141 194.35 575.242 194.979 576.5 194.979 577.758 194.979 578.859 194.35 579.331 193.249L592.229 166.195 607.172 133.164C611.104 122.94 609.846 111.457 603.711 102.492 597.577 93.3688 587.353 88.0208 576.5 88.0208Z"/></g></svg>