<svg width="520" height="520" xmlns="http://www.w3.org/2000/svg" xmlns:xlink="http://www.w3.org/1999/xlink" xml:space="preserve" overflow="hidden"><g transform="translate(-2761 -227)"><path d="M2813 487C2813 372.125 2906.12 279 3021 279 3135.88 279 3229 372.125 3229 487 3229 601.875 3135.88 695 3021 695 2906.12 695 2813 601.875 2813 487Z" stroke="#000000" stroke-width="13.75" stroke-miterlimit="8" fill="none" fill-rule="evenodd"/><g><g><g><path d="M2999.58 335.333 3042.42 335.333 3038.86 551.041 3003.14 551.041 2999.58 335.333Z"/><path d="M3051.33 604.542C3051.33 621.294 3037.75 634.875 3021 634.875 3004.25 634.875 2990.67 621.294 2990.67 604.542 2990.67 587.789 3004.25 574.208 3021 574.208 3037.75 574.208 3051.33 587.789 3051.33 604.542Z"/></g></g></g></g></svg>