<svg width="151" height="151" xmlns="http://www.w3.org/2000/svg" xmlns:xlink="http://www.w3.org/1999/xlink" xml:space="preserve" overflow="hidden"><g transform="translate(-47 -66)"><path d="M147.667 113.188C147.667 127.087 136.399 138.354 122.5 138.354 108.601 138.354 97.3333 127.087 97.3333 113.188 97.3333 99.2883 108.601 88.0208 122.5 88.0208 136.399 88.0208 147.667 99.2883 147.667 113.188Z"/><path d="M172.833 194.979 172.833 169.812C172.833 166.038 170.946 162.262 167.8 159.746 160.879 154.083 152.071 150.308 143.262 147.792 136.971 145.904 130.05 144.646 122.5 144.646 115.579 144.646 108.658 145.904 101.738 147.792 92.9292 150.308 84.1208 154.712 77.2 159.746 74.0542 162.262 72.1667 166.038 72.1667 169.812L72.1667 194.979 172.833 194.979Z"/></g></svg>