<svg width="519" height="520" xmlns="http://www.w3.org/2000/svg" xmlns:xlink="http://www.w3.org/1999/xlink" xml:space="preserve" overflow="hidden"><g transform="translate(-1722 -227)"><path d="M1774 487C1774 372.125 1866.9 279 1981.5 279 2096.1 279 2189 372.125 2189 487 2189 601.875 2096.1 695 1981.5 695 1866.9 695 1774 601.875 1774 487Z" stroke="#000000" stroke-width="13.75" stroke-miterlimit="8" fill="none" fill-rule="evenodd"/><g><g><g><path d="M2077.06 417.279C2070.85 364.242 2022.83 326.278 1969.79 332.485 1921.2 338.172 1884.51 379.262 1884.34 428.187L1929.84 428.187C1929.84 399.928 1952.75 377.018 1981.01 377.017 2009.27 377.015 2032.18 399.924 2032.18 428.183 2032.18 445.803 2023.12 462.184 2008.19 471.541 1977.38 490.393 1958.49 523.825 1958.25 559.944L2003.75 559.944C2004.04 539.48 2014.88 520.617 2032.41 510.057 2063.97 490.358 2081.35 454.235 2077.06 417.279Z"/><path d="M2001.4 594.964 2001.4 594.964C1990.55 584.099 1972.96 584.08 1962.09 594.923 1962.08 594.937 1962.06 594.95 1962.05 594.964 1959.51 597.516 1957.48 600.537 1956.09 603.859 1954.64 607.291 1953.9 610.981 1953.92 614.707 1953.9 618.418 1954.64 622.094 1956.1 625.506 1958.93 632.176 1964.26 637.475 1970.94 640.274 1974.38 641.725 1978.06 642.467 1981.79 642.458 1985.5 642.476 1989.17 641.735 1992.59 640.278 1999.22 637.443 2004.51 632.156 2007.34 625.517 2008.8 622.105 2009.55 618.429 2009.53 614.718 2009.54 610.993 2008.8 607.303 2007.35 603.87 2005.96 600.545 2003.94 597.521 2001.4 594.964Z"/></g></g></g></g></svg>