<svg width="151" height="151" xmlns="http://www.w3.org/2000/svg" xmlns:xlink="http://www.w3.org/1999/xlink" xml:space="preserve" overflow="hidden"><g transform="translate(-1106 -66)"><path d="M1181.5 135.208C1173.64 135.208 1167.34 128.917 1167.34 121.052 1167.34 113.188 1173.64 106.896 1181.5 106.896 1189.36 106.896 1195.66 113.188 1195.66 121.052 1195.66 128.917 1189.36 135.208 1181.5 135.208ZM1181.5 88.0208C1170.65 88.0208 1160.42 93.3688 1154.29 102.492 1148.15 111.457 1146.9 122.94 1150.83 133.164L1165.77 166.195 1178.67 193.249C1179.14 194.35 1180.24 194.979 1181.5 194.979 1182.76 194.979 1183.86 194.35 1184.33 193.249L1197.23 166.195 1212.17 133.164C1216.1 122.94 1214.85 111.457 1208.71 102.492 1202.58 93.3688 1192.35 88.0208 1181.5 88.0208Z" stroke="#000000" stroke-width="4" fill="none"/></g></svg>