<svg width="152" height="151" xmlns="http://www.w3.org/2000/svg" xmlns:xlink="http://www.w3.org/1999/xlink" xml:space="preserve" overflow="hidden"><g transform="translate(-198 -66)"><path d="M100.667 47.1875C100.667 61.0867 89.3992 72.3542 75.5 72.3542 61.6008 72.3542 50.3333 61.0867 50.3333 47.1875 50.3333 33.2883 61.6008 22.0208 75.5 22.0208 89.3992 22.0208 100.667 33.2883 100.667 47.1875Z" stroke="#000000" stroke-width="4.00001" fill="none" transform="matrix(1.00662 0 0 1 198 66)"/><path d="M125.833 128.979 125.833 103.812C125.833 100.037 123.946 96.2625 120.8 93.7458 113.879 88.0833 105.071 84.3083 96.2625 81.7917 89.9708 79.9042 83.05 78.6458 75.5 78.6458 68.5792 78.6458 61.6583 79.9042 54.7375 81.7917 45.9292 84.3083 37.1208 88.7125 30.2 93.7458 27.0542 96.2625 25.1667 100.037 25.1667 103.812L25.1667 128.979 125.833 128.979Z" stroke="#000000" stroke-width="4.00001" fill="none" transform="matrix(1.00662 0 0 1 198 66)"/></g></svg>